<svg id="Layer_1" data-name="Layer 1" xmlns="http://www.w3.org/2000/svg" viewBox="0 0 1600 1600"><defs><style>.cls-1{fill:#e3f2f9;}.cls-2{fill:#179ebc;}.cls-3{fill:#0d2f44;}</style></defs><circle class="cls-1" cx="800" cy="800" r="579.22"/><path class="cls-2" d="M667.33,1030.66a5.61,5.61,0,0,0-4.17.17c-2.15,1.12-2.73,3.93-2.62,6.36.16,3.46,1.21,7.12-2.18,10a8.19,8.19,0,0,1-4.09,1.83c-3.7.55-7.24-1-10.22-3.16-5.47-3.87-9.65-9.77-10.7-16.38s1.33-13.85,6.59-18c2.71-2.14,6-3.38,9.23-4.6L693.94,990a23.68,23.68,0,0,1,7.25-1.89c4.31-.18,8.46,2,11.4,5.21a20.39,20.39,0,0,1-6.79,32.61.35.35,0,0,1-.38-.58c2.21-2.11,4-4.83,2.68-7.48a4.9,4.9,0,0,0-5.88-2.22c-3.76,1.14-5.57,4.63-7.19,7.91-1.22,2.47-2.49,5.22-.76,7.93a6.31,6.31,0,0,0,4.81,2.78c3.86.34,7.14-2,9.71-4.68a32,32,0,0,0,6.68-10.53.72.72,0,0,1,1.35,0,29,29,0,0,1-8,30.53c-4,3.47-9.24,6.35-11.74,10.68a4.69,4.69,0,0,1-5.18,2.25c-5.73-1.4-12.21.08-18.3.33a43.07,43.07,0,0,1-35.17-16.37c5.65,7.3,20.41,6.44,27.79,3.41,3.6-1.48,8.77-4,9.18-8.38S671.37,1031.83,667.33,1030.66Z"/><path class="cls-3" d="M741.22,986.79c-2-2.85-3.59-6-5.72-8.73a15.12,15.12,0,0,0-3.63-3.43l-4.39-2.86L710,960.23l-8.74-5.8c-2.9-1.93-5.83-3.88-8.73-5.94s-5.75-4.23-8.5-6.6a55.22,55.22,0,0,1-7.69-7.89,127.38,127.38,0,0,1-11.09-18.5l-9.58-18.63-9.58-18.63c-3.18-6.22-6.41-12.39-9.55-18.7s-6.11-12.76-8.64-19.45c-1.27-3.34-2.43-6.74-3.41-10.21s-1.75-7-2.56-10.28a45.29,45.29,0,0,0-3.09-9.19,23.24,23.24,0,0,0-2.41-3.88c-.94-1.25-2-2.49-3.19-3.78-2.29-2.59-4.94-5.37-6.8-9.16-.21-.49-.44-1-.63-1.46s-.38-1-.53-1.51c-.29-1-.49-2-.67-2.81a11.53,11.53,0,0,0-1.21-3.72,3.67,3.67,0,0,0-.94-1,10.79,10.79,0,0,0-1.71-.95,30.68,30.68,0,0,1-5.2-2.64,16.21,16.21,0,0,1-4.48-4.87,36.46,36.46,0,0,1-2.56-5.18c-1.37-3.31-2.54-6.3-4.29-8.24a10.94,10.94,0,0,0-3.07-2.36,13.78,13.78,0,0,0-4-1.19,19.94,19.94,0,0,0-4.46-.15,28.79,28.79,0,0,0-4.65.67,52.87,52.87,0,0,0-9.33,3.15,80.15,80.15,0,0,1-10.26,3.79,25,25,0,0,1-12,.42l4.26-3.69a16.43,16.43,0,0,0,2.66,7.23,65.53,65.53,0,0,0,5.5,7.06,74.11,74.11,0,0,1,6.09,7.86,33.22,33.22,0,0,1,4.17,9.63c1.75,6.68,1.88,13.19,2.58,19.26a107.37,107.37,0,0,0,3.75,17.95c1.69,6,3.66,12,5.41,18.14a181.44,181.44,0,0,1,4.25,18.82,331.38,331.38,0,0,1,3.85,38l.47,9.48c.14,3.14.33,6.3.37,9.58a58.26,58.26,0,0,1-.66,10,36.05,36.05,0,0,1-3.12,9.94c-3,6.24-7.22,11.29-10.91,16.26a70.37,70.37,0,0,0-5,7.53,46.62,46.62,0,0,0-3.64,7.79,43,43,0,0,0-1.72,17.5,77.59,77.59,0,0,0,4.08,17.91c2,5.91,4.46,11.71,6.82,17.58s4.34,11.89,7,17.63c-3.18-5.47-5.72-11.28-8.67-16.84s-5.85-11.21-8.44-17.07a77.5,77.5,0,0,1-5.86-18.52,48.9,48.9,0,0,1,.41-20,35,35,0,0,1,3.88-9.53,97,97,0,0,1,5.59-8.14c3.83-5.12,7.73-9.9,10.2-15.09a28.88,28.88,0,0,0,2.54-8.06,51.91,51.91,0,0,0,.56-8.82c0-3-.22-6.18-.36-9.33l-.47-9.43A323.85,323.85,0,0,0,568.22,869a174.16,174.16,0,0,0-4.09-18.1c-1.69-6-3.66-12-5.41-18.14a115.42,115.42,0,0,1-4-19.07c-.71-6.45-.9-12.67-2.38-18.24a26.38,26.38,0,0,0-3.31-7.66,67.72,67.72,0,0,0-5.51-7.08,71.5,71.5,0,0,1-6.1-7.88,23.51,23.51,0,0,1-3.72-10.4l-.4-4.69,4.66,1a18,18,0,0,0,8.7-.35,76.18,76.18,0,0,0,9.36-3.5,59.9,59.9,0,0,1,10.5-3.51,36.75,36.75,0,0,1,5.7-.83,26.8,26.8,0,0,1,6,.22,20.62,20.62,0,0,1,6,1.85,18.11,18.11,0,0,1,5.19,4,22.57,22.57,0,0,1,3.34,5.19c.84,1.74,1.5,3.42,2.15,5,1.29,3.13,2.67,5.73,4.59,7a26.24,26.24,0,0,0,4.15,2,18.1,18.1,0,0,1,2.85,1.62,10.2,10.2,0,0,1,2.69,2.78,17.38,17.38,0,0,1,2.21,6.1,16.8,16.8,0,0,0,1.29,4.2c1.21,2.52,3.37,4.93,5.72,7.54,1.17,1.31,2.39,2.68,3.55,4.22a30.31,30.31,0,0,1,3.1,5,51.61,51.61,0,0,1,3.62,10.61c.85,3.49,1.56,6.81,2.49,10s2,6.47,3.22,9.65c2.42,6.38,5.3,12.62,8.37,18.82s6.32,12.4,9.5,18.61l9.58,18.63,9.58,18.62c1.59,3.08,3.2,6.11,4.91,9a74.05,74.05,0,0,0,5.63,8.26c7.79,10.55,19.51,18.6,30.35,27.38L728.73,970l4.09,3.29a16.35,16.35,0,0,1,3.56,4.11C738.29,980.47,739.49,983.75,741.22,986.79Z"/><path class="cls-3" d="M827.77,1029l-11.71-20.08-5.83-10-2.92-5c-.49-.82-1-1.69-1.44-2.58s-.92-1.78-1.35-2.68a168.37,168.37,0,0,1-8.06-22.14c-2.27-7.46-4.28-15-6.41-22.36-.52-1.86-1-3.88-1.47-5.82l-.72-3-.48-3-.46-3-.23-1.51-.12-1.52-.41-6.1A113.83,113.83,0,0,1,788.41,896c1.52-7.88,3.58-15.5,5.55-23s3.74-14.78,5.08-22.08c.29-1.83.68-3.65,1-5.47s.53-3.63.82-5.45l.22-1.36.14-1.37.3-2.73.63-5.9c.51-4.24,1.26-7.91,1.46-11.2a20.25,20.25,0,0,0-.09-4.33,8.31,8.31,0,0,0-.94-3l-.18-.28-.08-.14a1.17,1.17,0,0,0-.14-.22l-.82-1.12L799.63,806c-1.16-1.58-2.33-3.19-3.5-4.89-.59-.86-1.18-1.73-1.79-2.72l-.47-.79-.51-.92c-.27-.54-.53-1.06-.77-1.59a43.78,43.78,0,0,1-2.38-6.52,32.1,32.1,0,0,1-1.19-7.31c0-.65,0-1.42,0-2,0-.34,0-.67,0-1a14.7,14.7,0,0,0-.16-2,16.29,16.29,0,0,0-3.13-7.38L785,768l-1-1.26-1.93-2.53c-.68-.83-1.21-1.75-1.8-2.63l-1.73-2.66c-1.11-1.8-2.06-3.7-3.09-5.54s-1.77-3.83-2.66-5.75a86.13,86.13,0,0,1-6.19-24.38,84,84,0,0,1,1.15-25.2,79.42,79.42,0,0,1,3.5-12.24l1.19-3c.21-.49.39-1,.61-1.48l.72-1.43,1.44-2.87.36-.72.34-.65.62-1.15a51.46,51.46,0,0,0,3.85-9.51c.51-1.68,1-3.44,1.41-5.24l.16-.68.13-.56c.07-.37.15-.74.21-1.12.13-.75.23-1.52.29-2.29a29,29,0,0,0,0-4.66c-.06-.79-.15-1.57-.27-2.35l-.46-2.8c-.67-4-1.18-8-1.58-12a200.88,200.88,0,0,1,1.07-48A214.8,214.8,0,0,1,793.28,539a197,197,0,0,1,22.23-42.54,177,177,0,0,1,15-18.89c.68-.74,1.35-1.5,2-2.23l2.12-2.16,2.13-2.16,2.2-2.09,2.21-2.07,2.28-2,2.29-2,.29-.25a9.75,9.75,0,0,1,1.26-.89,11.59,11.59,0,0,1,1.12-.56c.33-.14.52-.2.78-.29a18,18,0,0,1,2.19-.6c1.23-.27,2.27-.43,3.28-.59l1.39-.22.51-.09.59-.11a7.58,7.58,0,0,1,3.82.38,9.65,9.65,0,0,1,1.57.76,9.22,9.22,0,0,1,.9.61c.21.16.46.36.63.51l.5.45c.58.55,1.05,1.06,1.45,1.52.83.94,1.5,1.8,2.15,2.66,2.56,3.41,4.7,6.71,6.85,10.05,4.24,6.67,8.23,13.36,12.17,20.08l5.84,10.09,1.45,2.5,1.36,2.32,3,5.05c4.1,6.68,7.93,13.56,11.67,20.5a268.24,268.24,0,0,1,29.89,89.84c2.43,15.58,3.91,31.14,5.21,46.63l1.78,22.42a1.79,1.79,0,0,0,.55.92,1.27,1.27,0,0,0,.79.33h.24l.93,0,1.87,0c.64,0,1.29.09,1.94.15l1,.08,1,.17a25.16,25.16,0,0,1,7.47,2.53,41.76,41.76,0,0,1,5.8,3.68c1.62,1.19,3,2.21,4.32,3a20.12,20.12,0,0,0,3.77,1.8,27.31,27.31,0,0,0,4.43,1,84.53,84.53,0,0,0,10.67.6c3.86,0,7.86.11,11.78.25a386,386,0,0,1,47,4.58c2,.3,3.89.64,5.83,1l2.91.52,1.41.25.21,0a1.21,1.21,0,0,0,.78-.3c.29-.35.08.19,1.08-2.24,2.94-7.07,5.77-14.22,8.59-21.41,5.65-14.38,11.21-28.91,17.54-43.29,3.2-7.23,6.47-14.22,9.92-21.31s7.18-14.12,11.41-21c2.14-3.42,4.38-6.81,6.79-10.09s5-6.48,7.77-9.55A165,165,0,0,1,1143,570.73c6.1-5,12.24-9.73,18.08-14.55a141.77,141.77,0,0,0,16.19-15.1c1.15-1.37,2.41-2.67,3.45-4.1s2.2-2.79,3.13-4.28l1.47-2.18c.47-.75.94-1.52,1.41-2.33,1-1.61,1.94-3.34,3.06-5.14a52.23,52.23,0,0,1,3.87-5.48,30.64,30.64,0,0,1,5.39-5.19,21.32,21.32,0,0,1,16.23-4.21,18.47,18.47,0,0,1,4.45,1.32,16,16,0,0,1,4.31,2.77,16.87,16.87,0,0,1,3.14,3.9,21.22,21.22,0,0,1,1.76,3.87c.42,1.2.73,2.3,1,3.29l.75,2.83,1.51,5.6,3.07,11.2c1,3.73,1.92,7.49,2.79,11.26l5.13,22.66,2.57,11.32c.21.91.43,2,.64,3s.38,2.08.53,3.12.29,2.08.39,3.12.2,2.07.26,3.1a137.61,137.61,0,0,1-1,24.06c-.91,7.82-1.91,15.37-3,23.16-2.2,15.45-5.39,30.91-10.48,45.71s-11.79,28.83-18.81,42.62c5.71-14.38,11.27-28.87,15-43.76a243.57,243.57,0,0,0,6.8-45.37c.26-3.85.46-7.62.66-11.54s.46-7.72.62-11.53a128.65,128.65,0,0,0-.6-22.3c-.12-.9-.24-1.79-.41-2.66s-.3-1.76-.51-2.62-.38-1.72-.63-2.56-.45-1.65-.75-2.62L1231.18,580l-6.68-22.25c-1.09-3.71-2.14-7.43-3.11-11.18l-2.83-11.26-1.44-5.62-.73-2.78c-.23-.88-.45-1.64-.67-2.27a4.92,4.92,0,0,0-1.09-2,1.81,1.81,0,0,0-.56-.34,4.26,4.26,0,0,0-1.1-.32,7.3,7.3,0,0,0-5.57,1.63,23.76,23.76,0,0,0-5.74,6.85c-.93,1.49-1.87,3.12-2.88,4.84-.5.86-1,1.75-1.59,2.64l-1.77,2.63c-1.14,1.79-2.44,3.43-3.72,5.08s-2.67,3.19-4,4.78A157.73,157.73,0,0,1,1170,567c-6.1,5-12.25,9.73-18.09,14.55a152.2,152.2,0,0,0-16.23,15.09c-2.42,2.68-4.7,5.52-6.88,8.45s-4.2,6-6.16,9.16c-3.9,6.31-7.41,13-10.75,19.79s-6.61,13.85-9.67,20.78c-6.15,14-11.66,28.33-17.32,42.76-2.83,7.22-5.7,14.46-8.7,21.68a35,35,0,0,1-1.54,3.4,15.38,15.38,0,0,1-3.38,4.11,15.17,15.17,0,0,1-12.56,3.41l-1.45-.26-2.8-.5c-1.87-.32-3.74-.65-5.62-.94a374.33,374.33,0,0,0-45.33-4.41c-3.81-.13-7.55-.21-11.43-.25a94.9,94.9,0,0,1-12.49-.73,41.21,41.21,0,0,1-6.88-1.55,33.81,33.81,0,0,1-6.69-3.17c-4-2.5-6.83-5.05-9.16-6.17a11.07,11.07,0,0,0-3.47-1.18c-.15,0-.29-.07-.45-.09l-.47,0-1-.08-1,0-1.73,0a15.21,15.21,0,0,1-9.82-3.73,15.71,15.71,0,0,1-5.18-8.93c-.08-.43-.13-.88-.18-1.32l0-.53,0-.36-.11-1.44-.22-2.89-.45-5.78-.93-11.53c-1.29-15.35-2.75-30.62-5.09-45.62a254.38,254.38,0,0,0-28.43-85.46C894.65,536.6,891,530,887,523.45l-3-4.9-.83-1.4-.75-1.28L881,513.34l-5.8-10c-3.88-6.63-7.82-13.24-11.88-19.63-2-3.17-4.12-6.35-6.21-9.13-.52-.69-1-1.34-1.5-1.86-.23-.27-.42-.46-.54-.58l0,0,.07.06s.2.15.3.2a5.13,5.13,0,0,0,.92.43,6.08,6.08,0,0,0,3.11.28c.94-.2-.16,0-.12,0l-.92.16-1.47.23c-.91.14-1.77.28-2.43.43l-.43.1-.14,0,0,0,.1,0a2.94,2.94,0,0,0,.47-.24,5.49,5.49,0,0,0,.68-.47l-.26.23-2.09,1.82-2.08,1.82-2,1.91-2,1.9-1.95,2-1.94,2c-.64.67-1.25,1.37-1.88,2.05A163.86,163.86,0,0,0,827,504.41,183.57,183.57,0,0,0,806.36,544a201.46,201.46,0,0,0-11.11,43.36,187.38,187.38,0,0,0-1,44.64c.38,3.7.85,7.39,1.47,11l.47,2.93c.17,1.13.31,2.27.4,3.42a43.22,43.22,0,0,1,0,6.92c-.09,1.16-.24,2.32-.44,3.47-.09.58-.21,1.15-.33,1.73l-.19.86-.18.73c-.48,1.95-1,3.94-1.6,6A65.87,65.87,0,0,1,789,681l-.76,1.41c-.14.24-.23.44-.32.63l-.29.58-1.16,2.32-.59,1.16c-.18.39-.33.8-.49,1.2l-1,2.42a66.62,66.62,0,0,0-2.88,10,70.77,70.77,0,0,0-1,21,71.87,71.87,0,0,0,5.2,20.45c.74,1.59,1.42,3.22,2.21,4.79s1.64,3.1,2.57,4.59l1.43,2.2a24.16,24.16,0,0,0,1.47,2.16L795,758l.79,1,.2.26.29.36.58.74a30.31,30.31,0,0,1,5.82,13.78A30,30,0,0,1,803,778c0,.63,0,1.27,0,1.9a8.41,8.41,0,0,0,0,.87,18.32,18.32,0,0,0,.7,4.11,27.94,27.94,0,0,0,1.6,4.37c.16.35.33.69.49,1l.2.35.27.46c.4.65.9,1.39,1.4,2.12,1,1.49,2.12,3,3.25,4.55l1.72,2.34.89,1.23c.13.16.38.56.56.85l.59,1a22.29,22.29,0,0,1,2.68,8,34.45,34.45,0,0,1,.2,7.25c-.33,4.44-1,8.38-1.4,11.83l-.47,5.65c-.2,2-.27,4.08-.61,6.08l-.93,6c-.38,2-.83,3.95-1.28,5.91-1.91,7.83-4.37,15.4-6.86,22.77s-5,14.55-6.88,21.76a103.26,103.26,0,0,0-3.58,21.79,97.79,97.79,0,0,0,2,22c1.58,7.66,3,15.22,4.64,22.73a166.6,166.6,0,0,0,6.11,22c.33.88.66,1.76,1.05,2.61s.74,1.71,1.17,2.59L813,997.4l4.95,10.51Z"/><path class="cls-3" d="M1214,796.25a18.53,18.53,0,0,1-2.37,10.78,32.67,32.67,0,0,1-7.36,9c-5.83,5.06-12.52,8.51-17.09,12.27a14.63,14.63,0,0,1-2.18,1.45c-.17.09-.17.12-.15.08s0,0-.07.3c-.12.62-.14,2-.21,4.12a24.93,24.93,0,0,1-.39,3.71,16.41,16.41,0,0,1-1.6,4.69,20.3,20.3,0,0,1-1.46,2.26c-.54.69-1.11,1.25-1.69,1.86s-1.13,1-1.72,1.44-1.1.75-1.66,1.12a53.55,53.55,0,0,1-5.41,2.75,16.1,16.1,0,0,0-2.73,1.48s0,0,0,0a.4.4,0,0,0,.1-.12.19.19,0,0,0,0-.07l.09-.1c.09-.14.11-.32.19-.45a.41.41,0,0,0,0-.22s0,0,0,.07l0,.16,0,.33c-1.13,6.87-2.45,13.73-3.42,20.24a124.73,124.73,0,0,0-1.38,19.42c.06,13.18,1.53,27,1.58,41.32a144.32,144.32,0,0,1-1.39,21.87,82.5,82.5,0,0,1-2.52,11.19c-.3,1-.52,1.82-.93,2.87-.19.54-.36,1-.52,1.38l-.51,1.28-2,4.9c-2.74,6.44-5.53,12.8-8.46,19.16-1.47,3.18-3,6.35-4.59,9.58-.39.8-.81,1.61-1.26,2.45l-.67,1.25-.79,1.36-.41.7-.67,1-.68.94-.43.51-1.69,2c-2.29,2.7-4.66,5.43-7.25,8.11-1.28,1.33-2.59,2.61-3.79,3.79s-2.34,2.33-3.47,3.52c-2.26,2.36-4.49,4.84-6.72,7.39-1.27,1.47-2.59,2.77-3.77,4.1-.59.67-1.13,1.35-1.71,2a13.82,13.82,0,0,1-1.86,1.66,53.57,53.57,0,0,0-7,5.8,27.22,27.22,0,0,0-5,7.27c-2.69,5.67-4,12.55-4.73,19.56-2.39-6.62-4.13-13.76-3.64-21.56a35.84,35.84,0,0,1,2.79-11.79,60.76,60.76,0,0,1,6-10.29A14,14,0,0,1,1099,1034c.63-.62,1.29-1.16,1.9-1.74,1.22-1.14,2.28-2.34,3.29-3.46,2.31-2.63,4.69-5.29,7.19-7.91,1.25-1.3,2.54-2.61,3.79-3.84s2.41-2.37,3.52-3.52c2.21-2.28,4.36-4.75,6.53-7.31l1.62-1.94.4-.48c0-.06,0-.09.06-.12a.23.23,0,0,1,.07-.1l.24-.41.51-.88.54-1c.37-.68.74-1.39,1.11-2.14,1.47-2.93,2.92-6,4.34-9.08,2.84-6.16,5.6-12.43,8.25-18.68l1.93-4.65.44-1.12c.16-.38.3-.76.4-1,.23-.55.43-1.35.65-2a66.47,66.47,0,0,0,2-9,130.54,130.54,0,0,0,1.2-19.37c0-6.64-.39-13.4-.76-20.26s-.79-13.89-.82-21.09c0-3.6.09-7.24.34-10.91s.68-7.32,1.21-10.88c1.07-7.12,2.37-13.81,3.47-20.54l0-.32,0-.15,0-.25c.11-.49.23-1,.37-1.47a12.82,12.82,0,0,1,1.17-2.83l.38-.67.41-.59c.29-.39.58-.77.89-1.15a21.1,21.1,0,0,1,1.85-1.82,28.44,28.44,0,0,1,6.19-3.69,38.68,38.68,0,0,0,3.82-1.89c.16-.12.34-.23.49-.33a1.6,1.6,0,0,1,.26-.21s.06-.06,0-.06,0,.06,0,.09a14.2,14.2,0,0,0,.16-1.61,43,43,0,0,1,.43-6.19,17.43,17.43,0,0,1,1.47-4.62,18.69,18.69,0,0,1,2.83-4.12,17,17,0,0,1,6.17-4.57c7.62-2.71,14.2-3.47,20.2-5.58a28.67,28.67,0,0,0,8.31-4.37A18,18,0,0,0,1214,796.25Z"/><path class="cls-3" d="M1008.06,994.35a38.69,38.69,0,0,0,5.57-16.78,37.36,37.36,0,0,0-2.39-17.19,16.79,16.79,0,0,0-4.67-6.76,15.37,15.37,0,0,0-7.49-2.92,72.38,72.38,0,0,0-17.4-.43l-.75.07-.87-.58-.39-.27-.32-.16-.13,0c.11,0,.19,0,.11,0a4.46,4.46,0,0,0-.43.57,20.72,20.72,0,0,0-1.07,2.16c-.36.82-.74,1.71-1.19,2.62a16.12,16.12,0,0,1-1.72,2.83,8.59,8.59,0,0,1-3.11,2.57,7.6,7.6,0,0,1-4.28.6,5.69,5.69,0,0,1-1.2-.27c-.34-.11-.62-.23-.89-.34-.52-.23-1-.45-1.43-.67-1.75-.9-3.35-1.79-4.92-2.57-.79-.39-1.56-.75-2.26-1a8.23,8.23,0,0,0-.9-.27l-.13,0h0a1.24,1.24,0,0,0,.54-.06l.13-.05.19-.08.19-.1s.21-.15,0,0a4.61,4.61,0,0,1-.92.45,4.45,4.45,0,0,1-1.1.19,4.31,4.31,0,0,1-2.72-.93,7.82,7.82,0,0,1-1.67-1.86,18.72,18.72,0,0,1-1.59-3.06,22.22,22.22,0,0,1-1-3.17,10.38,10.38,0,0,1-.29-2.07c0-.26,0-.49,0-.83a4.86,4.86,0,0,1,.1-.55,5.57,5.57,0,0,1,.28-.81,3.41,3.41,0,0,1,.31-.55,5,5,0,0,1,.46-.57,4.05,4.05,0,0,1,1.64-1,4.17,4.17,0,0,1,.87-.15h.65l.13,0a4.6,4.6,0,0,1,1,.27l4.31,1.64-2.8,3.72a27.5,27.5,0,0,1-3.25,3.72,32.51,32.51,0,0,1-3.77,3,58.33,58.33,0,0,1-8.06,4.37l-7.86,3.49c-.64.29-1.24.59-1.87.88a10,10,0,0,0-1.35.77,3.15,3.15,0,0,0-.62.56s0,0,0-.15a.82.82,0,0,0,0-.41l-6.9.24a2.65,2.65,0,0,0,0,.88,3.26,3.26,0,0,0,.19.66,3.21,3.21,0,0,0,.37.65,3.17,3.17,0,0,0,.78.75l.18.1h0l-.16-.08-.33-.19a4,4,0,0,1-1-1,3.6,3.6,0,0,1-.46-.81,4.24,4.24,0,0,1-.24-.82,4,4,0,0,1,0-1.24l2.48,3.82a38.73,38.73,0,0,1-14.85-8.26l-.88-.79-.18-1a10.57,10.57,0,0,1-.19-1.39c0-.43,0-.87.07-1.29s.15-.76.24-1.13l.32-1a25.22,25.22,0,0,1,1.44-2.9,10.14,10.14,0,0,0,.84-1.75l0-.09v0s0,0,0,.05a.29.29,0,0,0,0,.16c0,.07,0,.25.11.34s.06.16.14.2.14.1-.2-.08l-.68-.38c-.3-.18-.62-.42-.92-.64a8.9,8.9,0,0,1-2.75-3.45,10.48,10.48,0,0,1-1-4,12,12,0,0,1,.45-3.84,11.4,11.4,0,0,1,1.64-3.52,10.24,10.24,0,0,1,2.91-2.88c.3-.19.61-.39.9-.55s.58-.29.86-.4a16,16,0,0,1,1.66-.6c1.08-.32,2.08-.53,3-.72a8.7,8.7,0,0,0,6.92-4.39c1-1.36,2-3,3.35-4.64a23.34,23.34,0,0,1,4.78-4.38,25.35,25.35,0,0,1,11.93-4.37,24.21,24.21,0,0,1,9.58,1c1,.31,1.89.65,2.75,1a28.09,28.09,0,0,0,4.67,1.42,4.29,4.29,0,0,0,3-.32l-1.51,1.81a78.53,78.53,0,0,0,4.21-19.69,165.08,165.08,0,0,0,.27-20.65c-.3-7-.81-14-1.17-21.06s-.45-14.23-.36-21.32.31-14.16.59-21.21c.15-3.54.27-7,.45-10.61a74.17,74.17,0,0,1,1.29-11A34.4,34.4,0,0,1,970.47,776a33.62,33.62,0,0,1,3.51-4.7c1.2-1.39,2.34-2.63,3.26-3.85a16.22,16.22,0,0,0,2.18-3.82A46.58,46.58,0,0,0,981,759c.51-1.68,1-3.47,1.78-5.3a21.16,21.16,0,0,1,3.12-5.43,15.58,15.58,0,0,1,5.2-4.33,11.51,11.51,0,0,1,3.58-1.11,12.29,12.29,0,0,1,1.92-.1l1.31,0c3.48.14,7.24.08,11.39,1.31a15.74,15.74,0,0,1,3.14,1.35,11.44,11.44,0,0,1,2.91,2.42,9.27,9.27,0,0,1,1.13,1.58,10,10,0,0,1,.83,1.67,17.16,17.16,0,0,1,.87,3.21c.34,2,.48,3.66.7,5.44l.62,5.25c1.6,14,3,28.21,2.85,42.57a157.37,157.37,0,0,1-1.73,21.52c-.23,1.79-.6,3.56-.94,5.34-.18.89-.32,1.78-.53,2.66l-.64,2.64-.64,2.65-.77,2.61-1.48,5a57.8,57.8,0,0,0-1.67,9.8c-.16,1.68-.27,3.38-.35,5.1l-.1,2.59,0,1.31,0,1a18.16,18.16,0,0,0,.94,4.25c.51,1.48,1.17,3,1.87,4.54,1.44,3.09,3.11,6.24,4.51,9.79a27.61,27.61,0,0,1,1.61,5.86,21.87,21.87,0,0,1-.1,6.23c-.27,1.93-.67,3.69-.92,5.26a11.76,11.76,0,0,0-.1,4,5.29,5.29,0,0,0,.54,1.52,6.13,6.13,0,0,0,.45.72,2.58,2.58,0,0,0,.31.42l.38.46c.5.61,1,1.22,1.56,1.79s1.1,1.17,1.72,1.71a80.5,80.5,0,0,0,7.88,6.34c2.81,2.05,5.75,4.11,8.61,6.46a43.24,43.24,0,0,1,7.93,8.25,23.16,23.16,0,0,1,1.61,2.5,25.94,25.94,0,0,1,1.4,2.74,31.3,31.3,0,0,1,1.65,5.7c.38,1.79.68,3.45,1.09,5a13.62,13.62,0,0,0,1.62,3.84A140.54,140.54,0,0,1,1068.68,976a57.36,57.36,0,0,1,3.6,10.66,35.42,35.42,0,0,1,.63,11.62c-.43,3.85-1.36,7.33-1.89,10.58a36.86,36.86,0,0,0-.42,9.65,50.91,50.91,0,0,0,1.88,9.68c.45,1.61,1,3.2,1.56,4.8l1.86,4.88c2.74,7.15,3.51,14.65,3.75,21.86.1,3.61.06,7.18,0,10.71l0,2.64a14,14,0,0,0,.16,2,10,10,0,0,0,1.41,3.65c.74,1.23,1.77,2.55,2.87,4.11a23,23,0,0,1,2.85,5.48,19.71,19.71,0,0,1,1,6.35c0,1-.15,2.09-.29,3.11s-.38,2-.69,2.93a36.88,36.88,0,0,1-5,10.33,40.33,40.33,0,0,1-7.63,8.35,23.71,23.71,0,0,1-10.49,5.21,33.18,33.18,0,0,1-11.25-.15,33.6,33.6,0,0,1-19.07-10.68c-4.86-5.55-7.63-12.11-12.15-17.36a44.57,44.57,0,0,0-16.75-12.29,45.44,45.44,0,0,1,17.81,11.32c5.06,5.14,8.34,11.64,13.12,16.43a30.13,30.13,0,0,0,17.66,8.56,29.29,29.29,0,0,0,9.76-.41,19.17,19.17,0,0,0,7.95-4.61,35.1,35.1,0,0,0,6.16-7.55,30.88,30.88,0,0,0,3.73-8.78c.22-.75.25-1.49.4-2.23s.08-1.45.08-2.14a12.92,12.92,0,0,0-.87-4,16.37,16.37,0,0,0-2.17-3.78c-.91-1.32-2.07-2.76-3.12-4.57a17.2,17.2,0,0,1-2.24-6.18,20,20,0,0,1-.2-3.23l0-2.64c0-3.51.08-7,0-10.4-.22-6.83-1-13.55-3.29-19.59l-1.9-5c-.6-1.73-1.21-3.45-1.7-5.24a57.92,57.92,0,0,1-2.14-11,44.14,44.14,0,0,1,.5-11.38c.61-3.69,1.49-7,1.83-10.21a28.1,28.1,0,0,0-.51-9.36,50.22,50.22,0,0,0-3.16-9.32,135,135,0,0,0-10.07-17.89,20.49,20.49,0,0,1-2.51-5.83c-.52-1.9-.84-3.7-1.19-5.35a24.2,24.2,0,0,0-1.26-4.44,24.77,24.77,0,0,0-2.25-3.89c-3.59-5.07-9.24-8.94-15-13.11a89.37,89.37,0,0,1-8.56-6.89c-.7-.62-1.35-1.33-2-2a28.63,28.63,0,0,1-1.91-2.18l-.46-.57a6.39,6.39,0,0,1-.48-.63,14.79,14.79,0,0,1-.94-1.52,12.89,12.89,0,0,1-1.22-3.43,18.4,18.4,0,0,1,.06-6.48c.3-1.91.69-3.59.9-5.14a15.28,15.28,0,0,0,.09-4.3,20.34,20.34,0,0,0-1.2-4.29c-1.18-3-2.79-6.09-4.33-9.38s-3.08-6.87-3.44-11.26l0-1.65,0-1.34.11-2.68c.08-1.8.2-3.61.37-5.43a64,64,0,0,1,1.89-11l1.51-5.13.73-2.45.6-2.49.6-2.49c.2-.83.33-1.68.5-2.52.32-1.68.68-3.35.89-5a148,148,0,0,0,1.65-20.55c.19-13.82-1.21-27.72-2.81-41.66l-.61-5.24c-.21-1.72-.39-3.6-.64-5a9.28,9.28,0,0,0-.5-1.88,2.78,2.78,0,0,0-.35-.69,2.2,2.2,0,0,0-.4-.56,4.67,4.67,0,0,0-1.13-.94,9.25,9.25,0,0,0-1.7-.71c-2.62-.81-6-.89-9.53-1l-1.34-.05a5.49,5.49,0,0,0-.7.05,4.35,4.35,0,0,0-1.44.45,8.71,8.71,0,0,0-2.83,2.41,14.45,14.45,0,0,0-2.1,3.69c-.58,1.43-1.06,3-1.58,4.72s-1.06,3.48-1.83,5.32a23.82,23.82,0,0,1-3,5.32c-1.2,1.59-2.45,2.94-3.56,4.22a24.2,24.2,0,0,0-6,12.49,68.91,68.91,0,0,0-1.15,10c-.18,3.43-.3,7-.45,10.49-.27,7-.51,14-.58,21s0,13.94.35,20.9.87,14,1.17,21.11a172.69,172.69,0,0,1-.28,21.56,86.41,86.41,0,0,1-4.62,21.5l-.43,1.18-1.08.62a10.64,10.64,0,0,1-4,1.31,12.57,12.57,0,0,1-3.76-.12,34.29,34.29,0,0,1-5.9-1.76c-.87-.32-1.69-.62-2.46-.86a15.38,15.38,0,0,0-2.23-.54,17.43,17.43,0,0,0-4.57-.17,18.25,18.25,0,0,0-8.61,3.15,16.29,16.29,0,0,0-3.35,3.06c-1,1.19-1.93,2.7-3.1,4.33a18.38,18.38,0,0,1-4.77,4.81,13.25,13.25,0,0,1-3.35,1.55c-1.09.34-2.1.56-3,.75s-1.71.37-2.4.58c-.35.1-.65.22-.93.33s-.26.13-.4.19a4.26,4.26,0,0,0-1.25,1.17,4.5,4.5,0,0,0-.4.68,5.16,5.16,0,0,0-.28.78,4.44,4.44,0,0,0,.11,3,1.89,1.89,0,0,0,.65.82c.08,0,.11.11.21.17l.53.29a7.22,7.22,0,0,1,2,1.53,7.06,7.06,0,0,1,.92,1.34,5.77,5.77,0,0,1,.53,1.65q.06.42.09.84a5.8,5.8,0,0,1,0,.74c0,.24-.05.5-.09.71l-.15.58a15.57,15.57,0,0,1-1.46,3.26,19.5,19.5,0,0,0-1,2,3.14,3.14,0,0,0-.18.62l-1.07-1.78a31.62,31.62,0,0,0,12.15,6.76l2.49,3.82a3,3,0,0,0,0-.88,3.19,3.19,0,0,0-.19-.65,3.58,3.58,0,0,0-.37-.66,2.76,2.76,0,0,0-.79-.74l-.17-.11h0l.17.08c.11.07.18.1.32.2a3.64,3.64,0,0,1,1.05,1,3.6,3.6,0,0,1,.46.81,3.56,3.56,0,0,1,.23.82,4.06,4.06,0,0,1,0,1.24l-2.32,24.24-4.58-24a6.21,6.21,0,0,1,0-2.54,6.57,6.57,0,0,1,.91-2.11,9.16,9.16,0,0,1,2.41-2.44,14.71,14.71,0,0,1,2.36-1.37c.67-.32,1.35-.65,2-.95,2.67-1.23,5.32-2.32,7.82-3.51a48,48,0,0,0,7-3.9,24.09,24.09,0,0,0,2.91-2.35,21.56,21.56,0,0,0,2.49-2.66l1.51,5.36a2.14,2.14,0,0,0,.69.18l.26,0h.35a3.22,3.22,0,0,0,.7-.14,3.1,3.1,0,0,0,1.35-.81A3.13,3.13,0,0,0,954,946c.1-.16.19-.35.22-.39a2.87,2.87,0,0,0,.17-.49,1.18,1.18,0,0,0,0-.2.5.5,0,0,0,0-.14,3.38,3.38,0,0,0,.07.68,13.76,13.76,0,0,0,.57,2.15,13.31,13.31,0,0,0,.86,1.94c.11.22.32.43.11.26a2.26,2.26,0,0,0-1.46-.41,2,2,0,0,0-.75.13,1.91,1.91,0,0,0-.61.29c-.18.13,0,0,.13-.07l.34-.19.35-.15.3-.1a4.9,4.9,0,0,1,1.91-.17c.24,0,.43.06.65.09l.55.13a14.37,14.37,0,0,1,1.74.63c1,.45,1.9.93,2.75,1.41,1.7,1,3.29,2,4.8,2.84a9.5,9.5,0,0,0,1.61.81,2,2,0,0,0,1.16,0c.67-.19,1.64-1.29,2.44-2.76.41-.73.81-1.53,1.24-2.38a21.43,21.43,0,0,1,1.58-2.74,8.17,8.17,0,0,1,1.38-1.53,4.9,4.9,0,0,1,2.62-1.07,5.14,5.14,0,0,1,2.56.54c.3.17.61.35.88.53l.73.56-1.61-.51a72.82,72.82,0,0,1,18.39,1.55,24.73,24.73,0,0,1,4.6,1.45,15.4,15.4,0,0,1,4.19,2.7,19.56,19.56,0,0,1,5,8.18,38.37,38.37,0,0,1,1.33,18.21A39.26,39.26,0,0,1,1008.06,994.35Z"/><path class="cls-2" d="M934.72,941.56c-5.14,1-10.38,2.56-14.15,6.17-4.37,4.19-6.08,10.42-6.94,16.41-1,6.76-.94,14.21,3.07,19.74,5.47,7.56,16.73,8.89,25.46,5.86a5,5,0,0,0,2.57-1.85c3.06-4.65-6.1-9-3.23-14.57a5.83,5.83,0,0,1,7.58-2.38c5.22,2.32,6.23,8.21,6.25,13.43,0,4.13-.42,8.46-2.68,11.91-2.86,4.37-9.38,6.82-13.5,2.14a7.45,7.45,0,0,0-5.59-2.69c-4.24.06-4.74,4-4.11,7.1,2.25,10.77,12.72,17.48,22.26,23,3.12,1.8,6.42,3.65,10,3.72,2.85,0,5.59-1,8.25-2.07l20.32-8.08c3.4-1.35,6.9-2.76,9.57-5.27a11.32,11.32,0,0,0,3.55-6.47,3.24,3.24,0,0,0-3.28-3.69c-6.08.07-12.55,3.15-17.35-2a11.34,11.34,0,0,1-2.62-10c.77-3.79,1.8-9.94,6.52-11.65a4.66,4.66,0,0,1,5.48,1.53c1.4,2.05.23,4.29.14,6.49-.18,4.64,4.5,8.11,9,9.05,10.51,2.18,22-5.8,23.65-16.4,1.68-10.8-5.53-20.77-12.33-29.32-3.82-4.8-7.89-5.71-13.68-7.77a79.42,79.42,0,0,0-11.63-3.29c-3-.6-8.4-2.26-11.67-1.86-4,.5-8.45-.2-12.33.23-4.3.47-8.65,1.55-13,1.43A75.61,75.61,0,0,0,934.72,941.56Z"/><path class="cls-3" d="M533.11,1059.7a89.48,89.48,0,0,1-22.78-5.56,118,118,0,0,1-21.18-10.58,130,130,0,0,1-34.62-32.78,155.41,155.41,0,0,1-12.68-20.47,184,184,0,0,1-9.6-22.1c-1.46-3.75-2.57-7.6-3.78-11.43-.64-1.91-1.11-3.86-1.62-5.8l-1.54-5.82a102.55,102.55,0,0,0-7.37-20.36c-.35-.82-.82-1.59-1.2-2.4s-.79-1.61-1.22-2.39c-.89-1.56-1.67-3.17-2.61-4.69L411.55,913l-1.44-2.26c-.93-1.53-2-3-3-4.43a86.23,86.23,0,0,0-14.77-15.47c-1.35-1.16-2.82-2.19-4.22-3.29l-2.33-1.67c-1-.71-1.91-1.42-2.76-2.15a82.05,82.05,0,0,1-9.15-9.11,202.44,202.44,0,0,1-14.7-19.37,457.51,457.51,0,0,1-24.3-40.82q-11.12-20.88-20.65-42.52a463.66,463.66,0,0,1-17.07-44.32,216.81,216.81,0,0,1-6.23-23.42,101.29,101.29,0,0,1-1.77-12.56,55,55,0,0,1-.08-6.82,31.44,31.44,0,0,1,1.31-7.71,17.5,17.5,0,0,1,.8-2.16l.53-1.11.27-.55.38-.61a14.53,14.53,0,0,1,1.7-2.28,14.06,14.06,0,0,1,2.06-2,19.81,19.81,0,0,1,8.94-3.83,33.33,33.33,0,0,1,7.67-.34l1.76.14,1.7.2c1.14.13,2.21.34,3.3.53a95,95,0,0,1,12.28,3.21c3.93,1.26,7.74,2.68,11.48,4.18,7.48,3,14.71,6.34,21.82,9.83s14.1,7.16,21,10.94c13.81,7.55,27.33,15.52,40.67,23.75s26.49,16.72,39.49,25.51c3.25,2.2,6.49,4.42,9.72,6.69l4.85,3.45c.39.27.84.62,1.18.84l1,.69,2.07,1.38a42.07,42.07,0,0,0,8.79,4,35.37,35.37,0,0,0,9.27,1.47,38.18,38.18,0,0,0,18.51-4.72l2.66-1.41c.93-.48,1.87-.95,2.81-1.41q2.83-1.37,5.74-2.57t5.88-2.25l2.74-.95,2.67-1A194.84,194.84,0,0,0,564.76,738a100,100,0,0,0,9.4-5.31,47.18,47.18,0,0,0,7.8-6.11,18.09,18.09,0,0,0,2.53-3.13,6.88,6.88,0,0,0,1-2.44,1.5,1.5,0,0,1,0-.22,1.35,1.35,0,0,0,0-.36c0-.39,0-.8,0-1.24,0-.87,0-1.79,0-2.73l-.07-5.7L585,687.46c-.31-15.63-.4-31.33.07-47.07A430.16,430.16,0,0,1,588.82,593a192.46,192.46,0,0,1,4.86-23.87,102.09,102.09,0,0,1,4.11-12,57.72,57.72,0,0,1,6.49-11.82,37.46,37.46,0,0,1,4.88-5.56,30.2,30.2,0,0,1,6.59-4.62,27.44,27.44,0,0,1,8.09-2.49,42.62,42.62,0,0,1,7.32-.28,44.09,44.09,0,0,1,7.18,1.06,46.21,46.21,0,0,1,6.74,2.21,56.78,56.78,0,0,1,11.77,6.75,94.55,94.55,0,0,1,18,18,170.25,170.25,0,0,1,13.5,20.41,320.53,320.53,0,0,1,20.12,43.41c11.29,29.62,19.63,60,26.66,90.57,3.51,15.29,6.61,30.66,9.47,46.05l1,5.78.53,3c.17,1,.32,2.07.46,3.11a119.67,119.67,0,0,1,1,12.55l.11,5.91.16,5.71.27,11.38a208.14,208.14,0,0,0,1.48,22.48l.37,2.74c.13.91.3,1.8.45,2.7.28,1.82.71,3.53,1.08,5.29.21.85.46,1.68.69,2.52.12.42.22.85.36,1.25l.42,1.17a19.15,19.15,0,0,0,.88,2.29l.49,1,.24.54.13.27.18.35a118.35,118.35,0,0,1,9.12,22.8,144.1,144.1,0,0,1,4.76,23.62,131.78,131.78,0,0,1-2.72,47.56l-1.69,5.72c-.54,1.91-1.22,3.71-1.82,5.57l-3.7,11.08-7.45,22.15,5.23-22.78,2.64-11.38c.42-1.89.93-3.8,1.27-5.67l1.09-5.62a125.65,125.65,0,0,0-1.33-45.27A144.51,144.51,0,0,0,754,877.05a106.23,106.23,0,0,0-9.74-19.8l-.18-.29-.21-.37-.44-.76-.87-1.53a31.39,31.39,0,0,1-1.47-3l-.69-1.52c-.21-.51-.38-1-.57-1.52-.36-1-.75-2-1.09-3-.6-2-1.27-4-1.73-6-.25-1-.53-2-.76-3l-.64-3a221,221,0,0,1-3.48-23.92q-.55-6-.68-11.93,0-3,0-6c0-2,.07-4,0-5.75a83.33,83.33,0,0,0-.77-10.71c-.12-.89-.25-1.78-.39-2.66l-.49-2.75-1-5.71c-2.82-15.2-5.88-30.34-9.33-45.38-6.9-30.06-15.11-59.84-26-88.4a304.14,304.14,0,0,0-19.07-41.22,156.62,156.62,0,0,0-12.22-18.5,78.93,78.93,0,0,0-14.84-15c-5.42-4-11.31-6.63-17.09-6.92a26.06,26.06,0,0,0-4.33.16,11.34,11.34,0,0,0-3,.93,15.36,15.36,0,0,0-2.92,2.08,21.76,21.76,0,0,0-2.78,3.21,42.49,42.49,0,0,0-4.68,8.6,88.77,88.77,0,0,0-3.46,10.1,178.09,178.09,0,0,0-4.42,21.84,411.46,411.46,0,0,0-3.55,45.6c-.46,15.37-.38,30.8-.07,46.28l.53,23.34c0,2,.06,3.94.07,6,0,1,0,2,0,3.11,0,.52,0,1.09-.06,1.68,0,.23,0,.68-.09,1.09l-.15,1.22a22.68,22.68,0,0,1-3.22,8.34,34.64,34.64,0,0,1-4.75,6,61.88,61.88,0,0,1-10.51,8.3,115.54,115.54,0,0,1-10.9,6.18,210.15,210.15,0,0,1-22.33,9.48l-2.83,1-2.78,1q-2.54.88-5,1.92c-1.66.68-3.29,1.42-4.91,2.2-.81.39-1.61.79-2.41,1.2l-2.49,1.33a58.62,58.62,0,0,1-12.6,4.94,50.26,50.26,0,0,1-27.37-.5,58.39,58.39,0,0,1-12.43-5.6L474,767.42l-1.38-.94c-.48-.32-.79-.56-1.2-.85l-4.66-3.31q-4.71-3.3-9.5-6.55-19.17-13-38.92-25.14c-13.15-8.1-26.45-15.94-39.94-23.32a400.67,400.67,0,0,0-41.12-20c-3.47-1.39-7-2.69-10.44-3.81a84.1,84.1,0,0,0-10.28-2.7c-.82-.14-1.67-.31-2.46-.39l-1.2-.15-1.15-.09a17.61,17.61,0,0,0-4,.14,4.29,4.29,0,0,0-1.71.58c-.08,0,0,.05-.06.05s0,0,0,0h0l0,.1a1.89,1.89,0,0,1-.09.21,2.89,2.89,0,0,0-.21.58,16,16,0,0,0-.59,3.76,39.6,39.6,0,0,0,.07,4.84,86.21,86.21,0,0,0,1.5,10.54,200.5,200.5,0,0,0,5.78,21.65,446.75,446.75,0,0,0,16.48,42.76q9.27,21.07,20.12,41.43a441.92,441.92,0,0,0,23.42,39.37,186.24,186.24,0,0,0,13.49,17.8,68.08,68.08,0,0,0,7.35,7.36c.62.54,1.24,1,1.84,1.44l2.41,1.73c1.66,1.29,3.38,2.51,5,3.87a111.75,111.75,0,0,1,17.47,18.12,93.16,93.16,0,0,1,12.77,21.65,114.37,114.37,0,0,1,6.74,24l1,5.57c.35,1.85.65,3.72,1.11,5.55.86,3.66,1.63,7.37,2.71,11a173.12,173.12,0,0,0,7.29,21.38l2.28,5.17c.76,1.72,1.66,3.37,2.48,5.07l1.27,2.53L459,1001c.94,1.63,1.79,3.32,2.83,4.89a123.21,123.21,0,0,0,30,33.87C503.89,1049,517.88,1056.37,533.11,1059.7Z"/><path class="cls-3" d="M826.31,1036.84c-.63,4.05-1.29,8.09-1.54,12.08a36.25,36.25,0,0,0,.75,11.52,22.7,22.7,0,0,0,1.86,5,23.91,23.91,0,0,0,3,4.38,39.36,39.36,0,0,0,3.84,3.92c1.4,1.24,2.69,2.66,4.05,4a69.29,69.29,0,0,0,19.15,12.4,70.48,70.48,0,0,0,10.83,3.68,38.85,38.85,0,0,0,10.8,1.37,21.5,21.5,0,0,0,9.7-2.72,58,58,0,0,0,9.21-6.52c3.05-2.53,6.31-5.3,9.78-7.77a113.15,113.15,0,0,1,10.75-6.8,111.72,111.72,0,0,1,11.47-5.49,115.34,115.34,0,0,1,12-4.1,101,101,0,0,0,11.12-3.57,22,22,0,0,0,8.36-5.56,4.5,4.5,0,0,1,6.35-.42,4.34,4.34,0,0,1,.73.82,47.62,47.62,0,0,0,12.71,12c5,3.4,10.6,6.32,16.27,9.37a140.44,140.44,0,0,1,17,10.25,63.8,63.8,0,0,1,7.82,6.72c2.42,2.42,4.59,5,6.67,7.46,4.15,5,8,9.92,12.36,13.79a29.47,29.47,0,0,0,3.39,2.62c1.2.78,2.45,1.43,3.63,2.2a26.38,26.38,0,0,0,7.51,3.52,17.08,17.08,0,0,0,8.1.34,61.34,61.34,0,0,0,8.84-2.85,65,65,0,0,0,8.49-4.1,28.88,28.88,0,0,0,7.44-5.88,28.38,28.38,0,0,1-6.31,7.44,59.86,59.86,0,0,1-7.94,5.84,69.34,69.34,0,0,1-8.83,4.72,23.62,23.62,0,0,1-10.91,1.68,33.53,33.53,0,0,1-10.6-2.67,24.08,24.08,0,0,1-4.59-2.8c-1.44-1-2.84-2.13-4.17-3.31-5.24-4.68-9.28-9.94-13.33-14.78-2-2.43-4-4.77-6.13-6.88a55.13,55.13,0,0,0-6.76-5.8,133.6,133.6,0,0,0-15.93-9.58c-5.62-3-11.44-6.06-17.05-9.84a67.34,67.34,0,0,1-8.1-6.36,50.47,50.47,0,0,1-7-8l7.09.39a31.12,31.12,0,0,1-11.69,8,113.71,113.71,0,0,1-12.08,3.9,103.92,103.92,0,0,0-11.08,3.79A98.88,98.88,0,0,0,913,1085.53c-3.17,2.26-6.11,4.75-9.32,7.41a66,66,0,0,1-10.68,7.51,33,33,0,0,1-6.53,2.67,29.22,29.22,0,0,1-7.06,1.1,47.49,47.49,0,0,1-13.33-1.63,78.86,78.86,0,0,1-33.88-18.11,31.8,31.8,0,0,1-4.63-4.58,46,46,0,0,1-3.75-5.61,29.79,29.79,0,0,1-2.71-6.38,28.88,28.88,0,0,1-1-6.76,33,33,0,0,1,.45-6.56,46.06,46.06,0,0,1,1.42-6.19A97.85,97.85,0,0,1,826.31,1036.84Z"/><path class="cls-3" d="M537.48,1019.69a346.69,346.69,0,0,1,35.62,24.1,45.42,45.42,0,0,1,4,3.63l3.91,3.69q3.91,3.69,7.73,7.47c5.12,5,10,10.16,15.12,14.73a63.12,63.12,0,0,0,16.54,11.19,38.19,38.19,0,0,0,9.23,2.72,42.55,42.55,0,0,0,9.72.39A70.63,70.63,0,0,0,658.9,1083c6.41-2.38,12.72-5.46,19.15-8.52a179.31,179.31,0,0,1,20.07-8.5c1.68-.6,3.78-1.14,4.87-1.58a31.52,31.52,0,0,0,4.23-2.12c2.92-1.68,5.85-3.68,9.15-5.55.9-.49,1.52-.87,2.25-1.29l1.07-.62,1-.69c1.39-.87,2.69-1.89,4-2.89a48.5,48.5,0,0,0,6.94-7,45,45,0,0,0,8.8-17.32,40.77,40.77,0,0,0,1.31-9.69,44.09,44.09,0,0,0,0-5l-.13-2.51c-.06-.83-.19-1.67-.28-2.51l-.31-2.51-.44-2.52c-.27-1.68-.66-3.36-1-5s-.8-3.37-1.26-5c-.22-.84-.51-1.68-.75-2.52s-.44-1.71-.61-2.57c-1.3-7-2.81-14.14-3.27-21.46,0-.92-.14-1.82-.14-2.74v-2.75c-.06-1.82.19-3.66.3-5.47a25.08,25.08,0,0,1,.39-2.7l.47-2.67c.41-1.76,1-3.49,1.42-5.2a59.51,59.51,0,0,0,1.8,20.87,193.76,193.76,0,0,0,6.73,20,39.84,39.84,0,0,1,1.44,5.19c.4,1.78.92,3.5,1.28,5.31s.82,3.57,1.11,5.4l.48,2.74.34,2.77c.11.93.25,1.85.31,2.79l.15,2.81a53.21,53.21,0,0,1,0,5.65,48.6,48.6,0,0,1-1.56,11.39,52.79,52.79,0,0,1-10.35,20.39,55.94,55.94,0,0,1-8.1,8.11c-1.51,1.17-3,2.34-4.63,3.37l-1.2.79-1.24.72c-.8.47-1.71,1-2.37,1.37-2.88,1.62-5.84,3.64-9.08,5.51a40.26,40.26,0,0,1-5.3,2.63c-2.23.85-3.59,1.12-5.26,1.72a172.8,172.8,0,0,0-19.17,8.14c-6.4,3-12.88,6.22-19.8,8.8a78.46,78.46,0,0,1-21.82,5.06,51.34,51.34,0,0,1-11.53-.46,46.7,46.7,0,0,1-11.16-3.29,71.2,71.2,0,0,1-18.67-12.55c-5.48-4.88-10.42-10.09-15.42-15q-3.76-3.72-7.6-7.34c-1.29-1.21-2.56-2.43-3.89-3.59s-2.7-2.27-3.91-3.55C558,1039.46,547.85,1029.56,537.48,1019.69Z"/></svg>