<svg id="Layer_1" data-name="Layer 1" xmlns="http://www.w3.org/2000/svg" viewBox="0 0 1600 1600"><defs><style>.cls-1{fill:#e3f2f9;}.cls-2{fill:#179ebc;}.cls-3{fill:#0d2f44;}.cls-4{fill:#f3b543;}</style></defs><circle class="cls-1" cx="793.94" cy="872.54" r="579.22"/><path class="cls-2" d="M625.91,833.37a6.93,6.93,0,0,0-5.07.21c-2.6,1.37-3.31,4.78-3.17,7.72.19,4.21,1.47,8.65-2.65,12.14a9.92,9.92,0,0,1-5,2.22c-4.5.67-8.79-1.28-12.41-3.83-6.64-4.69-11.71-11.86-13-19.88s1.61-16.81,8-21.85c3.29-2.59,7.29-4.11,11.21-5.59L658.21,784a28.83,28.83,0,0,1,8.79-2.29c5.23-.22,10.28,2.49,13.84,6.32a24.76,24.76,0,0,1-8.24,39.59.43.43,0,0,1-.46-.71c2.68-2.56,4.87-5.87,3.25-9.08a6,6,0,0,0-7.13-2.7c-4.57,1.39-6.77,5.63-8.74,9.61-1.48,3-3,6.33-.92,9.62a7.69,7.69,0,0,0,5.84,3.37c4.68.41,8.67-2.42,11.79-5.67a38.67,38.67,0,0,0,8.1-12.79.87.87,0,0,1,1.64,0c4.4,12.78.49,28.13-9.71,37.06-4.81,4.22-11.22,7.72-14.25,13a5.66,5.66,0,0,1-6.28,2.74c-7-1.71-14.82.1-22.22.4a52.28,52.28,0,0,1-42.68-19.87c6.86,8.86,24.78,7.81,33.73,4.14,4.37-1.8,10.65-4.88,11.14-10.18S630.82,834.8,625.91,833.37Z"/><path class="cls-3" d="M715.58,780.13c-2.43-3.47-4.28-7.36-6.84-10.66a18.62,18.62,0,0,0-4.4-4.24l-5.3-3.51-21.13-14.17-10.55-7.11c-3.5-2.38-7-4.76-10.53-7.27s-6.92-5.16-10.22-8c-1.65-1.43-3.24-3-4.81-4.51a63.46,63.46,0,0,1-4.38-5c-5.38-7.08-9.5-14.77-13.4-22.32l-11.64-22.62-11.62-22.6c-3.87-7.55-7.79-15-11.59-22.69s-7.4-15.45-10.46-23.54c-1.53-4-2.93-8.15-4.11-12.33S572.48,581,571.5,577a55.39,55.39,0,0,0-3.82-11.3,28.1,28.1,0,0,0-3-4.83c-1.16-1.55-2.51-3.07-3.91-4.64-2.78-3.13-5.95-6.47-8.14-10.94-.25-.57-.52-1.13-.74-1.71s-.44-1.19-.62-1.78c-.35-1.2-.58-2.32-.8-3.35a14.36,14.36,0,0,0-1.58-4.77,4.73,4.73,0,0,0-1.33-1.35,13.59,13.59,0,0,0-2.19-1.22,36.65,36.65,0,0,1-6.2-3.15,18.85,18.85,0,0,1-5.23-5.68,43.13,43.13,0,0,1-3.05-6.19c-1.66-4-3.09-7.7-5.33-10.2a14,14,0,0,0-4-3,17.14,17.14,0,0,0-5-1.51,24.6,24.6,0,0,0-5.58-.2,35.89,35.89,0,0,0-5.76.84,64.23,64.23,0,0,0-11.44,3.86,99.3,99.3,0,0,1-12.36,4.57,29.56,29.56,0,0,1-14.23.5l4.25-3.69a20.76,20.76,0,0,0,3.35,9.11,80.08,80.08,0,0,0,6.74,8.66,91.19,91.19,0,0,1,7.33,9.45,39.74,39.74,0,0,1,5,11.49c2.1,8,2.27,15.85,3.11,23.26a131.49,131.49,0,0,0,4.58,21.9c2.06,7.28,4.45,14.55,6.56,22a213.85,213.85,0,0,1,5.14,22.76c2.66,15.32,3.81,30.76,4.67,46.1l.57,11.5c.18,3.82.4,7.65.44,11.6a68.62,68.62,0,0,1-.78,12.06A43,43,0,0,1,514.42,729c-3.59,7.46-8.67,13.56-13.16,19.61a84.82,84.82,0,0,0-6.15,9.21,47.4,47.4,0,0,0-6.4,31.15,94.26,94.26,0,0,0,5.15,21.8c2.48,7.16,5.53,14.19,8.45,21.28s5.39,14.37,8.63,21.32c-3.8-6.67-6.83-13.76-10.34-20.54s-7-13.64-10.08-20.76a95,95,0,0,1-6.92-22.42,58.79,58.79,0,0,1,.64-24,43.54,43.54,0,0,1,4.68-11.38,113.62,113.62,0,0,1,6.73-9.81c4.63-6.2,9.39-12,12.45-18.44a35.81,35.81,0,0,0,3.15-10,62.27,62.27,0,0,0,.68-10.84c0-3.71-.26-7.52-.43-11.35l-.57-11.45c-.85-15.23-2-30.41-4.58-45.29a209,209,0,0,0-5-22c-2.06-7.28-4.45-14.56-6.57-22A138.73,138.73,0,0,1,490,570c-.86-7.78-1.09-15.35-2.92-22.23a32.63,32.63,0,0,0-4.1-9.52,82.59,82.59,0,0,0-6.76-8.67,86.3,86.3,0,0,1-7.33-9.48,27.62,27.62,0,0,1-4.4-12.28l-.41-4.7,4.66,1a22.56,22.56,0,0,0,10.92-.44,92.08,92.08,0,0,0,11.46-4.27,71.92,71.92,0,0,1,12.62-4.23,42.36,42.36,0,0,1,6.8-1,31.92,31.92,0,0,1,7.09.25,24.31,24.31,0,0,1,7.09,2.18,20.9,20.9,0,0,1,6.07,4.66,26.41,26.41,0,0,1,3.94,6.13c1,2.07,1.8,4.1,2.6,6,1.58,3.82,3.28,7.12,5.83,8.84a33.8,33.8,0,0,0,5.15,2.54,20.15,20.15,0,0,1,3.33,1.89,11.68,11.68,0,0,1,3.08,3.18,20.37,20.37,0,0,1,2.58,7.15c.22,1,.43,2,.68,2.83.12.42.28.82.42,1.23s.35.8.52,1.2c1.54,3.2,4.22,6.17,7.06,9.33,1.42,1.59,2.89,3.24,4.28,5.07a36.06,36.06,0,0,1,3.68,6,62.53,62.53,0,0,1,4.34,12.72c1,4.23,1.89,8.27,3,12.22s2.46,7.89,3.93,11.78c2.94,7.76,6.45,15.36,10.19,22.9s7.67,15,11.53,22.6l11.63,22.6,11.62,22.6c1.94,3.75,3.89,7.44,6,11a91.84,91.84,0,0,0,6.87,10.13c9.65,12.91,24,22.54,37.19,33.1l20,15.7,5,3.94a20.22,20.22,0,0,1,4.33,4.92C712,772.49,713.45,776.47,715.58,780.13Z"/><path class="cls-3" d="M820.63,831.3l-14-24.47-7-12.24-3.49-6.12c-.59-1-1.16-2.06-1.72-3.14s-1.1-2.15-1.61-3.24a205.16,205.16,0,0,1-9.57-26.86c-2.69-9.06-5.06-18.21-7.59-27.18a122.9,122.9,0,0,1-3.2-14.2,113.3,113.3,0,0,1-1.32-14.62,133.37,133.37,0,0,1,2.84-29.1c1.91-9.48,4.47-18.67,6.91-27.71s4.73-18,6.38-26.88c.84-4.46,1.63-8.9,2.23-13.36.18-1.11.32-2.22.44-3.34s.29-2.23.39-3.35l.31-3.35.18-1.85c.06-.66.12-1.31.2-1.93.6-5.06,1.5-9.55,1.77-13.67a27.35,27.35,0,0,0-.12-5.57,11.47,11.47,0,0,0-1.33-4.13l-.26-.42-.12-.21a3,3,0,0,0-.18-.27l-1-1.37-2.08-2.84c-1.41-1.92-2.82-3.86-4.22-5.91-.71-1-1.41-2.07-2.13-3.23l-.55-.93-.58-1c-.32-.63-.63-1.25-.91-1.87a50.35,50.35,0,0,1-2.81-7.68,37.64,37.64,0,0,1-1.4-8.53c0-.75,0-1.62,0-2.35,0-.44,0-.87,0-1.31a20.56,20.56,0,0,0-.21-2.6,21.28,21.28,0,0,0-4.08-9.64l-.92-1.16-1.16-1.51-2.31-3c-.81-1-1.44-2.08-2.15-3.13l-2.06-3.19a14.89,14.89,0,0,1-1-1.63l-.92-1.66-1.81-3.33c-1.14-2.25-2.12-4.58-3.18-6.87a103.37,103.37,0,0,1-7.42-29.17A101,101,0,0,1,749.29,430l.84-3.71.42-1.85c.14-.62.36-1.22.54-1.83l1.12-3.64.57-1.81.7-1.78,1.42-3.55c.24-.58.47-1.18.73-1.76l.85-1.71,1.72-3.42c.28-.55.59-1.2.84-1.66s.53-.94.77-1.42A64.26,64.26,0,0,0,764.6,390c.62-2.07,1.18-4.23,1.72-6.44l.2-.83.16-.71c.1-.47.2-.94.28-1.42.17-1,.29-1.93.37-2.9a37.61,37.61,0,0,0,0-5.91c-.08-1-.2-2-.35-3l-.55-3.4c-.81-4.79-1.42-9.6-1.91-14.42a242.83,242.83,0,0,1,1.29-57.85,259.6,259.6,0,0,1,14.34-56A238.36,238.36,0,0,1,807,185.87,214.22,214.22,0,0,1,825.1,163.1c.82-.89,1.63-1.8,2.46-2.68l2.56-2.61,2.56-2.6,2.65-2.51,2.66-2.5c.91-.82,1.83-1.61,2.75-2.41l2.76-2.4.34-.3a9.24,9.24,0,0,1,1.3-.93,11.1,11.1,0,0,1,1.21-.6c.36-.15.56-.22.85-.33a23.27,23.27,0,0,1,2.49-.68c1.43-.31,2.69-.51,3.89-.7l1.71-.26.66-.12.58-.11a7.77,7.77,0,0,1,3.94.36,9.67,9.67,0,0,1,1.66.79,11.38,11.38,0,0,1,1,.66c.24.18.51.39.7.56l.56.5c.65.63,1.2,1.21,1.67,1.75,1,1.1,1.76,2.12,2.54,3.15,3,4.07,5.64,8.06,8.24,12.1,5.13,8.06,10,16.17,14.74,24.32l7.09,12.23,1.75,3,.86,1.49.82,1.37,3.67,6.11c2.42,4.08,5,8.1,7.22,12.29l3.49,6.24c1.16,2.08,2.35,4.14,3.41,6.28A323.29,323.29,0,0,1,956,343.17c2.94,18.85,4.73,37.7,6.32,56.48L964.48,427a3.6,3.6,0,0,0,1.16,2,3,3,0,0,0,1.92.77h.12c.05,0,0,0,.27,0l1.09,0,2.18,0c.74,0,1.49.11,2.24.17l1.12.1c.38.05.76.13,1.14.19a28.82,28.82,0,0,1,8.64,2.92,49.72,49.72,0,0,1,6.84,4.35c2,1.43,3.69,2.7,5.35,3.74a26.24,26.24,0,0,0,4.89,2.34c.86.22,1.61.5,2.64.7s2,.39,3,.53a101.19,101.19,0,0,0,13.14.74c4.69,0,9.51.14,14.26.31a467.57,467.57,0,0,1,56.89,5.54c2.36.36,4.71.77,7.06,1.17l3.52.63,1.71.31a4.57,4.57,0,0,0,.52.05,3,3,0,0,0,1.91-.72c.63-.62.58-.47,1.73-3.29,3.58-8.59,7-17.28,10.44-26,6.85-17.46,13.6-35.08,21.26-52.48,3.87-8.74,7.84-17.23,12-25.81s8.68-17.07,13.79-25.34c2.57-4.12,5.26-8.19,8.17-12.15s6-7.79,9.33-11.47a200.88,200.88,0,0,1,21.34-19.88c7.38-6.08,14.84-11.79,22-17.66a176.46,176.46,0,0,0,19.8-18.48l2.17-2.5c.36-.42.74-.83,1.08-1.26l1-1.3,2-2.59c.69-.85,1.23-1.79,1.85-2.68l1.82-2.7c.58-.92,1.15-1.87,1.73-2.86,1.17-2,2.36-4.06,3.69-6.2a61.12,61.12,0,0,1,4.59-6.5,35.81,35.81,0,0,1,6.28-6,24.36,24.36,0,0,1,18.56-4.83,18.72,18.72,0,0,1,2.52.58l1.25.39c.42.16.85.34,1.27.52a18,18,0,0,1,4.83,3.1,19.14,19.14,0,0,1,3.53,4.38,25.84,25.84,0,0,1,2,4.43c.48,1.4.84,2.7,1.16,3.89l.91,3.43,1.83,6.8,3.7,13.6c1.21,4.53,2.34,9.09,3.42,13.66l6.39,27.45,3.19,13.73c.27,1.1.53,2.37.79,3.61s.47,2.49.66,3.74.35,2.48.49,3.73.25,2.48.33,3.71a167.14,167.14,0,0,1-1,29c-.5,4.73-1.08,9.41-1.66,14.06l-.87,7c-.31,2.34-.57,4.69-.92,7-2.54,18.74-6.28,37.48-12.33,55.44s-14,35.05-22.42,51.86c7.07-17.4,13.94-34.93,18.63-53s7.31-36.5,8.65-55.1c.2-2.32.31-4.66.47-7l.43-7c.29-4.71.62-9.37.84-14a158.13,158.13,0,0,0-.56-27.25c-.14-1.1-.28-2.2-.49-3.28s-.36-2.17-.61-3.23-.44-2.13-.74-3.16-.55-2.06-.9-3.22l-4-13.52-7.93-27.05c-1.31-4.51-2.57-9-3.74-13.58l-3.47-13.66-1.75-6.82-.89-3.38c-.28-1.08-.56-2-.84-2.86a7.36,7.36,0,0,0-1.74-3.07,3.57,3.57,0,0,0-1.08-.67,7.2,7.2,0,0,0-1.69-.49,10.34,10.34,0,0,0-7.9,2.25c-2.71,2-5.06,5-7.35,8.72-1.14,1.85-2.28,3.83-3.5,5.91-.62,1-1.25,2.1-1.92,3.17l-2.11,3.14c-.73,1-1.37,2.13-2.16,3.11l-2.3,3-1.15,1.48c-.39.49-.81,1-1.21,1.42l-2.45,2.82A189,189,0,0,1,1235,269.47c-7.38,6.08-14.83,11.79-22,17.66a186.37,186.37,0,0,0-19.86,18.47c-3,3.3-5.77,6.78-8.44,10.38s-5.15,7.37-7.55,11.22c-4.76,7.71-9,15.83-13.12,24.14s-8,16.83-11.76,25.27c-7.48,17-14.18,34.45-21,52-3.43,8.76-6.9,17.53-10.54,26.28l-.68,1.64a21.76,21.76,0,0,1-1.11,2.33,17,17,0,0,1-14.8,8.66,18.55,18.55,0,0,1-3-.27l-1.75-.31-3.42-.62c-2.28-.38-4.55-.79-6.84-1.14a453.75,453.75,0,0,0-55.2-5.37c-4.63-.17-9.2-.26-13.9-.3a113.61,113.61,0,0,1-15-.88,48.27,48.27,0,0,1-8.09-1.82,39.26,39.26,0,0,1-7.81-3.7c-4.67-2.93-8.15-6.05-11.22-7.55a15.08,15.08,0,0,0-4.64-1.57c-.2,0-.39-.09-.59-.12l-.64,0-1.26-.1-3.39.07a17,17,0,0,1-11-4.17,17.58,17.58,0,0,1-5.78-10c-.09-.49-.15-1-.21-1.48,0-.27,0-.49-.06-.6l0-.44-.13-1.75-.27-3.51-.54-7-1.13-14c-1.57-18.65-3.35-37.21-6.2-55.49a309.48,309.48,0,0,0-34.66-104.18c-1-2.06-2.19-4.07-3.31-6.09L900.79,229c-2.2-4.07-4.68-8-7-12l-3.58-6-1-1.66-.9-1.55-1.77-3.06-7-12.15c-4.72-8.05-9.5-16.08-14.46-23.86-2.47-3.87-5-7.74-7.6-11.19-.64-.84-1.29-1.66-1.88-2.33a11.08,11.08,0,0,0-.76-.81l-.09-.09s0,0,0,0a1.84,1.84,0,0,0,.24.16,4.7,4.7,0,0,0,.88.41,5.92,5.92,0,0,0,3.08.24l-.28.06-1.08.19-1.77.27c-1.12.18-2.18.35-3,.55a7.81,7.81,0,0,0-.91.23s-.06,0,0,0a2.19,2.19,0,0,0,.41-.21,5.37,5.37,0,0,0,.59-.41l-.32.28L850,158.32c-.85.75-1.71,1.48-2.55,2.23l-2.47,2.33-2.46,2.33-2.38,2.42-2.38,2.42c-.78.82-1.53,1.67-2.29,2.5a200.87,200.87,0,0,0-16.94,21.28,223.87,223.87,0,0,0-25.24,48.33,246.12,246.12,0,0,0-13.57,52.94,228.38,228.38,0,0,0-1.21,54.54c.45,4.52,1,9,1.78,13.51l.58,3.55c.2,1.33.36,2.67.47,4a51.83,51.83,0,0,1,0,8.17c-.12,1.36-.29,2.73-.52,4.08-.11.68-.25,1.36-.39,2l-.23,1-.22.89c-.57,2.35-1.19,4.74-1.92,7.16a78.51,78.51,0,0,1-5.79,14.26c-.29.57-.6,1.12-.9,1.68s-.5,1-.76,1.48l-1.44,2.88-.72,1.43c-.23.49-.41,1-.61,1.5l-1.2,3-.6,1.5-.47,1.54-1,3.09c-.15.52-.34,1-.46,1.55l-.35,1.58L763,432.7a86.76,86.76,0,0,0-1.17,25.94,89.14,89.14,0,0,0,6.41,25.25c.92,2,1.76,4,2.74,5.91l1.56,2.85.78,1.43a12.14,12.14,0,0,0,.83,1.39l1.77,2.72a28.78,28.78,0,0,0,1.83,2.68l2,2.57,1,1.28.24.32.34.43.68.86a35.29,35.29,0,0,1,6.77,16,34.2,34.2,0,0,1,.36,4.41c0,.74,0,1.47,0,2.21,0,.45,0,.75,0,1.17a24.35,24.35,0,0,0,.9,5.33,37.89,37.89,0,0,0,2,5.54c.21.44.42.88.63,1.3l.27.48.36.59c.51.83,1.12,1.74,1.74,2.65,1.25,1.83,2.6,3.68,4,5.56l2.08,2.83,1.08,1.48.31.46.34.53.67,1.08a25.51,25.51,0,0,1,3.06,9.15,40.83,40.83,0,0,1,.23,8.49c-.39,5.26-1.27,10-1.71,14.28-.07.55-.11,1.07-.14,1.57l-.12,1.66-.27,3.67c-.22,2.44-.43,4.88-.78,7.3a138.57,138.57,0,0,1-2.64,14.39c-2.23,9.46-5.21,18.59-8.16,27.54s-5.94,17.72-8.25,26.54a123.85,123.85,0,0,0-4.16,26.7,109.06,109.06,0,0,0,2.6,26.91c2,9.26,3.73,18.44,5.82,27.55a201.9,201.9,0,0,0,7.62,26.75c.42,1.06.82,2.14,1.3,3.17s.93,2.08,1.45,3.15l3.05,6.35,6.1,12.71Z"/><path class="cls-3" d="M1289.34,548.88a22.63,22.63,0,0,1-3.26,12.76,38.68,38.68,0,0,1-9,10.4c-7.08,5.83-15.2,9.73-21.06,14.18-1.36,1-2.5,1.63-3.08,2.09a1.49,1.49,0,0,0-.47.53,4.12,4.12,0,0,0-.24.82,49.8,49.8,0,0,0-.27,5.23,28.26,28.26,0,0,1-.45,4.26,17.7,17.7,0,0,1-1.78,5.21,20.35,20.35,0,0,1-1.61,2.49,24.51,24.51,0,0,1-1.86,2.06c-.64.59-1.28,1.1-1.94,1.62s-1.25.86-1.88,1.27a64.84,64.84,0,0,1-6.4,3.25,19.91,19.91,0,0,0-3.68,2c0,.09-.18.17-.19.19s0,0,0,0l0,0,0,0c.06-.06,0-.16.09-.19a.09.09,0,0,0,0-.1s0,0,0,.11l0,.2-.07.39c-1.36,8.32-3,16.63-4.16,24.6a152.86,152.86,0,0,0-1.69,23.82c.08,16.13,1.86,32.92,1.92,50.15a175.21,175.21,0,0,1-1.66,26.28,98.43,98.43,0,0,1-3,13.34c-.35,1.12-.62,2.18-1.09,3.4-.22.62-.43,1.13-.63,1.64l-.61,1.54-2.45,5.92c-3.31,7.79-6.7,15.49-10.25,23.19-1.78,3.85-3.58,7.69-5.54,11.58-.47,1-1,1.94-1.52,2.94l-.79,1.5-.93,1.6-.48.81-.74,1.09-.77,1.05-.51.61-2,2.46c-2.76,3.26-5.62,6.55-8.72,9.75-1.54,1.6-3.11,3.14-4.57,4.58s-2.86,2.85-4.25,4.3c-2.77,2.9-5.49,5.93-8.21,9-1.51,1.75-3.08,3.32-4.52,4.91-.71.8-1.39,1.61-2.09,2.36a22.67,22.67,0,0,1-2.24,2.06,60.53,60.53,0,0,0-8.36,7.52,34.35,34.35,0,0,0-5.83,9.31c-3,7.11-4.34,15.48-4.84,24-2.58-8.09-4.36-16.73-3.54-26a43.09,43.09,0,0,1,3.63-13.83,71.25,71.25,0,0,1,7.33-12,22.1,22.1,0,0,1,2.11-2.47c.75-.75,1.54-1.42,2.28-2.13,1.48-1.41,2.79-2.87,4-4.27,2.8-3.19,5.67-6.39,8.68-9.54,1.5-1.57,3.06-3.14,4.57-4.63s2.93-2.89,4.3-4.3c2.72-2.81,5.36-5.84,8-9l2-2.36.5-.59c0-.09.08-.16.13-.24a1,1,0,0,1,.15-.2l.31-.54.64-1.11.68-1.28c.46-.84.91-1.72,1.36-2.63,1.8-3.59,3.57-7.32,5.29-11.07,3.46-7.5,6.81-15.12,10-22.72l2.35-5.68.55-1.38c.18-.46.37-.92.49-1.29.3-.72.55-1.7.82-2.57a82.88,82.88,0,0,0,2.51-11.12,158.72,158.72,0,0,0,1.47-23.78c0-8.11-.47-16.34-.92-24.68s-1-16.83-1-25.5c0-4.33.11-8.72.42-13.12s.81-8.79,1.45-13.07c1.28-8.58,2.86-16.72,4.2-24.9l.07-.38,0-.2,0-.27c.12-.54.26-1.08.41-1.61a12.84,12.84,0,0,1,1.27-3.08l.41-.74.45-.64c.32-.43.64-.85,1-1.26a24.18,24.18,0,0,1,2-2,32.31,32.31,0,0,1,7.15-4.24,52.31,52.31,0,0,0,4.81-2.39c.23-.17.49-.33.71-.48s.34-.28.47-.39.2-.2.24-.27.08-.09.09-.14a7,7,0,0,0,.4-2.68,54,54,0,0,1,.49-7.3,19.8,19.8,0,0,1,1.64-5.14,20.72,20.72,0,0,1,3.15-4.57,20.32,20.32,0,0,1,7.07-5.21,129.22,129.22,0,0,1,12.7-3.94,108.7,108.7,0,0,0,11.48-3.55,35.26,35.26,0,0,0,10-5.79A21.72,21.72,0,0,0,1289.34,548.88Z"/><path class="cls-3" d="M1039.44,789.31a46.89,46.89,0,0,0,6.9-20.35,45.32,45.32,0,0,0-2.79-21,20.65,20.65,0,0,0-5.7-8.35,18.85,18.85,0,0,0-9.23-3.68,88.14,88.14,0,0,0-21.22-.65l-.77.07-.85-.58-.51-.35-.46-.24c-.24-.07-.43-.13-.41-.09s0,0-.16.15a5,5,0,0,0-.62.8,22,22,0,0,0-1.35,2.67c-.45,1-.91,2.07-1.45,3.16a19.4,19.4,0,0,1-2,3.33,9.77,9.77,0,0,1-3.57,2.94,8.56,8.56,0,0,1-4.86.67,5.7,5.7,0,0,1-1.34-.3c-.4-.13-.72-.27-1-.4-.61-.27-1.16-.54-1.69-.81-2.11-1.07-4-2.18-6-3.14-1-.48-1.91-.93-2.79-1.27a9.87,9.87,0,0,0-1.18-.36l-.21,0h0l.1,0,.23,0,.11-.05.18-.06.17-.1s.2-.14,0,0a5.21,5.21,0,0,1-1,.46,4.69,4.69,0,0,1-1.13.19,4.49,4.49,0,0,1-2.86-1,8.63,8.63,0,0,1-1.86-2.09,21.52,21.52,0,0,1-1.85-3.59,24.45,24.45,0,0,1-1.22-3.74,11.92,11.92,0,0,1-.32-2.37,6,6,0,0,1,.05-.9c0-.19.06-.39.11-.59a5.25,5.25,0,0,1,.29-.84,3,3,0,0,1,.32-.56,4.51,4.51,0,0,1,.47-.59,4.2,4.2,0,0,1,1.67-1,4.36,4.36,0,0,1,.89-.15,3.38,3.38,0,0,1,.45,0h.21l.14,0a5.52,5.52,0,0,1,1.06.28l4.34,1.63-2.82,3.73a33.78,33.78,0,0,1-3.86,4.4,38.71,38.71,0,0,1-4.49,3.58,68.2,68.2,0,0,1-9.67,5.25l-9.53,4.25c-.78.34-1.52.71-2.29,1.07a11.45,11.45,0,0,0-1.74,1,4.22,4.22,0,0,0-1,.88c-.06.09,0,.11,0,.06a.28.28,0,0,0,0-.18l-6.9.24a2.36,2.36,0,0,0,0,.84,3.92,3.92,0,0,0,.19.64,3.38,3.38,0,0,0,.36.64,3.1,3.1,0,0,0,.76.72l.16.09h0l-.18-.09-.34-.2a4,4,0,0,1-1.07-1,3.78,3.78,0,0,1-.47-.83,3.19,3.19,0,0,1-.24-.84,4.26,4.26,0,0,1,0-1.27l2.49,3.81a46.14,46.14,0,0,1-17.74-9.86l-.88-.8-.18-1A13,13,0,0,1,917,740c0-.48,0-1,.08-1.44s.17-.85.27-1.27l.37-1.11a28.1,28.1,0,0,1,1.7-3.43,13.08,13.08,0,0,0,1.09-2.29.88.88,0,0,1,0-.15s0,0,0-.06l0,0s0,.06,0,.08,0,.16.07.21,0,.08.06.08,0,0-.44-.26l-.81-.46c-.34-.2-.7-.47-1-.72a10.05,10.05,0,0,1-3.12-3.9,11.91,11.91,0,0,1-1.08-4.55,13.67,13.67,0,0,1,.52-4.43,15.84,15.84,0,0,1,.76-2.09,14.82,14.82,0,0,1,1.13-2,11.69,11.69,0,0,1,3.32-3.29c.34-.22.69-.45,1-.63s.66-.33,1-.46a16.26,16.26,0,0,1,1.94-.7c1.27-.38,2.46-.63,3.54-.86a11.27,11.27,0,0,0,8.85-5.62c1.23-1.67,2.44-3.63,4-5.6a27.74,27.74,0,0,1,5.65-5.18,29.92,29.92,0,0,1,14.12-5.16,28.66,28.66,0,0,1,7.62.28,28.28,28.28,0,0,1,3.71.9c1.18.37,2.27.77,3.31,1.16a34.46,34.46,0,0,0,5.8,1.76,5.89,5.89,0,0,0,4.14-.48l-1.51,1.81a96,96,0,0,0,5.16-24.09,200.79,200.79,0,0,0,.32-25.16c-.36-8.46-1-17-1.41-25.56s-.54-17.25-.44-25.84.38-17.17.72-25.72c.17-4.28.32-8.51.54-12.86a89.53,89.53,0,0,1,1.55-13.23,41,41,0,0,1,4.88-13.06c.64-1,1.29-2,2-3s1.45-1.81,2.17-2.64c1.45-1.67,2.84-3.19,4-4.71a20.86,20.86,0,0,0,2.74-4.79,59.87,59.87,0,0,0,2-5.73c.62-2,1.26-4.18,2.14-6.36a25.28,25.28,0,0,1,3.68-6.41,18.14,18.14,0,0,1,6.06-5,13.15,13.15,0,0,1,4.11-1.28,13.59,13.59,0,0,1,2.21-.12l1.59.06c2.1.07,4.3.12,6.57.3a33.45,33.45,0,0,1,7,1.25,18.16,18.16,0,0,1,3.66,1.58,13.26,13.26,0,0,1,3.34,2.77,9.52,9.52,0,0,1,.7.87l.6.95a11.41,11.41,0,0,1,1,1.92,19.48,19.48,0,0,1,1,3.75c.41,2.41.57,4.41.84,6.56l.75,6.37c2,17,3.69,34.2,3.45,51.57a186.37,186.37,0,0,1-2.09,26c-.27,2.17-.72,4.31-1.13,6.45-.22,1.08-.39,2.16-.64,3.22l-.77,3.19-.78,3.19-.92,3.16-1.8,6.08a70.52,70.52,0,0,0-2.06,12c-.19,2.05-.32,4.13-.42,6.23l-.13,3.15,0,1.59,0,1.26a22.76,22.76,0,0,0,1.18,5.35c.63,1.84,1.44,3.71,2.3,5.58,1.75,3.77,3.77,7.59,5.45,11.85a33.31,33.31,0,0,1,1.91,6.94,26.14,26.14,0,0,1-.12,7.36c-.32,2.3-.81,4.42-1.12,6.36a15,15,0,0,0-.12,5.14,7.77,7.77,0,0,0,.73,2.06,10.08,10.08,0,0,0,.6,1,3.06,3.06,0,0,0,.4.53l.46.56a27,27,0,0,0,1.94,2.22c.68.72,1.35,1.44,2.11,2.11a98.64,98.64,0,0,0,9.64,7.75c3.42,2.5,7,5,10.41,7.82a51.79,51.79,0,0,1,9.5,9.86,26.46,26.46,0,0,1,1.91,3,30.68,30.68,0,0,1,1.67,3.24,39,39,0,0,1,2,6.78c.45,2.16.82,4.19,1.32,6.06a17.36,17.36,0,0,0,2.07,4.87,170.75,170.75,0,0,1,12.82,22.82,68.72,68.72,0,0,1,4.32,12.79,42.16,42.16,0,0,1,.75,13.86c-.51,4.6-1.64,8.81-2.28,12.8a45.79,45.79,0,0,0-.53,11.9,62,62,0,0,0,2.32,11.89c.54,2,1.23,3.92,1.9,5.88l2.27,5.93c3.27,8.56,4.21,17.58,4.49,26.29.13,4.36.08,8.68,0,13l0,3.21a16.3,16.3,0,0,0,.2,2.59,12.88,12.88,0,0,0,1.8,4.7c.93,1.56,2.2,3.17,3.51,5a27.15,27.15,0,0,1,3.39,6.47,23.16,23.16,0,0,1,1.2,7.45c0,.63-.09,1.23-.13,1.85s-.09,1.24-.21,1.83l-.36,1.76a14,14,0,0,1-.44,1.72,44,44,0,0,1-6,12.37,48,48,0,0,1-9.1,10,28.35,28.35,0,0,1-12.46,6.26,39.72,39.72,0,0,1-13.5-.13,40.38,40.38,0,0,1-23-12.73c-5.88-6.66-9.31-14.61-14.85-21a54.42,54.42,0,0,0-20.44-14.8,55.21,55.21,0,0,1,21.51,13.84c6.07,6.25,10,14.14,15.81,20a37,37,0,0,0,21.59,10.61,36,36,0,0,0,12-.43,23.59,23.59,0,0,0,9.92-5.67,42.46,42.46,0,0,0,7.63-9.24,38,38,0,0,0,4.67-10.82,8.68,8.68,0,0,0,.28-1.4l.23-1.38c.08-.47.05-.91.09-1.37s.08-.91,0-1.34a16.65,16.65,0,0,0-1.07-5.1,21.15,21.15,0,0,0-2.7-4.77c-1.13-1.63-2.53-3.37-3.77-5.5a20,20,0,0,1-2.63-7.23,23.53,23.53,0,0,1-.24-3.79l0-3.2c.06-4.27.1-8.49,0-12.67-.27-8.32-1.19-16.56-4-24l-2.31-6c-.72-2.09-1.45-4.17-2-6.31a68.35,68.35,0,0,1-2.56-13.23,53.14,53.14,0,0,1,.59-13.64c.73-4.43,1.81-8.51,2.23-12.42a34.89,34.89,0,0,0-.63-11.61,61.87,61.87,0,0,0-3.89-11.45,162.92,162.92,0,0,0-12.27-21.82,24.13,24.13,0,0,1-3-6.86c-.61-2.27-1-4.44-1.42-6.46a32.8,32.8,0,0,0-1.57-5.52,25.23,25.23,0,0,0-1.28-2.45,20.46,20.46,0,0,0-1.54-2.41,45.1,45.1,0,0,0-8.25-8.52c-3.16-2.6-6.6-5-10.08-7.57a106.54,106.54,0,0,1-10.32-8.3c-.84-.75-1.63-1.59-2.42-2.42s-1.53-1.71-2.27-2.61l-.55-.67a6.36,6.36,0,0,1-.56-.75,17.38,17.38,0,0,1-1.1-1.76,14.77,14.77,0,0,1-1.4-3.95,21.7,21.7,0,0,1,.07-7.61c.36-2.27.83-4.32,1.1-6.25a19.47,19.47,0,0,0,.11-5.42,26.31,26.31,0,0,0-1.5-5.38c-1.45-3.7-3.42-7.45-5.27-11.42-.92-2-1.82-4.07-2.58-6.27a30.16,30.16,0,0,1-1.54-7.13l0-1.94,0-1.62.13-3.25c.1-2.17.24-4.36.44-6.55a77.87,77.87,0,0,1,2.27-13.21c.28-1.08.67-2.24.95-3.22l.89-3,.88-3,.74-3,.73-3c.24-1,.41-2,.61-3.07.39-2,.82-4.09,1.09-6.17a181.68,181.68,0,0,0,2-25c.24-16.83-1.46-33.74-3.41-50.66l-.74-6.36c-.26-2.09-.47-4.35-.78-6.15a12.28,12.28,0,0,0-.65-2.42,4.12,4.12,0,0,0-.47-.94c-.09-.14-.17-.28-.25-.42s-.22-.24-.31-.37a6.37,6.37,0,0,0-1.57-1.3,12,12,0,0,0-2.22-.94,26.21,26.21,0,0,0-5.54-1c-2-.17-4.07-.22-6.23-.29l-1.61-.05a5.49,5.49,0,0,0-1,.06,5.71,5.71,0,0,0-2,.62,11.13,11.13,0,0,0-3.68,3.12,18.14,18.14,0,0,0-2.67,4.67c-.72,1.78-1.31,3.73-1.93,5.78a66.74,66.74,0,0,1-2.2,6.4,27.77,27.77,0,0,1-3.62,6.29c-1.42,1.89-2.93,3.52-4.28,5.08a33.41,33.41,0,0,0-3.48,4.64,34.43,34.43,0,0,0-4,10.85A83,83,0,0,0,995,551.34c-.21,4.18-.36,8.49-.54,12.75-.33,8.52-.62,17-.71,25.52s0,17,.43,25.41,1,17,1.42,25.62a208.41,208.41,0,0,1-.35,26.07,103.32,103.32,0,0,1-5.56,25.9l-.43,1.18-1.08.62a12.19,12.19,0,0,1-4.52,1.5,14.78,14.78,0,0,1-4.34-.15,39.56,39.56,0,0,1-7-2.1c-1.05-.38-2.06-.76-3-1.06a21.43,21.43,0,0,0-8.54-.89,23,23,0,0,0-10.81,4,20.36,20.36,0,0,0-4.22,3.85c-1.23,1.5-2.39,3.35-3.79,5.29a21.65,21.65,0,0,1-5.59,5.65,15.56,15.56,0,0,1-3.88,1.8c-1.28.4-2.48.66-3.58.89s-2.1.45-3,.72c-.44.13-.84.28-1.21.43-.19.07-.35.17-.53.25s-.26.18-.4.25a4.71,4.71,0,0,0-1.4,1.41,8.43,8.43,0,0,0-.55.93,10.24,10.24,0,0,0-.37,1.06,6.09,6.09,0,0,0,.18,4.14,3,3,0,0,0,1,1.28c.11.07.19.16.33.25l.65.36a8.21,8.21,0,0,1,2.26,1.7,9.5,9.5,0,0,1,1,1.47,6.32,6.32,0,0,1,.57,1.79c0,.3.08.61.1.91a7.08,7.08,0,0,1,0,.82,6.39,6.39,0,0,1-.1.78l-.16.65a18.07,18.07,0,0,1-1.71,3.79,26,26,0,0,0-1.3,2.57,2.24,2.24,0,0,0-.24,1.2l-1.07-1.78a39.31,39.31,0,0,0,15,8.37l2.48,3.82a2.47,2.47,0,0,0,0-.85,3,3,0,0,0-.18-.63,3.09,3.09,0,0,0-.36-.64,2.91,2.91,0,0,0-.76-.72l-.16-.1h0l.18.09.35.2a4.35,4.35,0,0,1,1.07,1,4,4,0,0,1,.47.83,4.39,4.39,0,0,1,.24.84,4.32,4.32,0,0,1,0,1.28l-2.3,24.6-4.6-24.36a6.8,6.8,0,0,1,0-2.77,7.23,7.23,0,0,1,1-2.32,10.53,10.53,0,0,1,2.73-2.76,17.75,17.75,0,0,1,2.76-1.6c.81-.38,1.62-.79,2.43-1.15,3.23-1.48,6.44-2.81,9.49-4.25a59.31,59.31,0,0,0,8.57-4.79,31.65,31.65,0,0,0,3.64-2.92,26.36,26.36,0,0,0,3.09-3.34l1.52,5.36a1.84,1.84,0,0,0,.65.17l.25,0h.34a3,3,0,0,0,.68-.14,3,3,0,0,0,1.32-.79,2.79,2.79,0,0,0,.35-.42c.1-.16.18-.34.21-.38a1.83,1.83,0,0,0,.15-.45.85.85,0,0,0,0-.17v-.06a4.9,4.9,0,0,0,.1,1,18.84,18.84,0,0,0,.75,2.72,15.45,15.45,0,0,0,1.11,2.47c.17.31.44.6.31.49a2.38,2.38,0,0,0-2-.23,1.73,1.73,0,0,0-.58.28c-.17.12.06,0,.15-.09l.36-.19.37-.17.31-.1a5.28,5.28,0,0,1,2.06-.18l.72.1.62.15a15.19,15.19,0,0,1,2,.72c1.2.53,2.26,1.09,3.29,1.67,2,1.15,4,2.36,5.84,3.42a9.4,9.4,0,0,0,2.16,1,2.94,2.94,0,0,0,1.74-.1c1-.35,2.24-1.82,3.21-3.63.51-.9,1-1.89,1.51-2.91a24.38,24.38,0,0,1,1.86-3.26,8.92,8.92,0,0,1,1.58-1.76,5.3,5.3,0,0,1,2.88-1.18,5.52,5.52,0,0,1,2.85.6c.35.19.69.39,1,.59l.85.65-1.62-.51a89.06,89.06,0,0,1,22.22,1.76,30.34,30.34,0,0,1,5.52,1.72,18,18,0,0,1,5,3.2,23.32,23.32,0,0,1,6,9.77,46.34,46.34,0,0,1,1.73,22A47.51,47.51,0,0,1,1039.44,789.31Z"/><path class="cls-2" d="M950.43,725.24c-6.23,1.16-12.6,3.11-17.17,7.49-5.3,5.09-7.37,12.64-8.42,19.91-1.18,8.21-1.14,17.25,3.73,24,6.64,9.17,20.3,10.78,30.9,7.11a6,6,0,0,0,3.11-2.25c3.72-5.64-7.4-11-3.91-17.68a7.07,7.07,0,0,1,9.19-2.89c6.33,2.81,7.56,10,7.6,16.3,0,5-.52,10.26-3.27,14.46-3.47,5.3-11.38,8.27-16.38,2.59A9.07,9.07,0,0,0,949,791c-5.14.06-5.75,4.91-5,8.61,2.73,13.07,15.44,21.21,27,27.87,3.8,2.18,7.8,4.43,12.18,4.51,3.46.07,6.79-1.23,10-2.51l24.66-9.8c4.13-1.65,8.38-3.36,11.62-6.4a13.88,13.88,0,0,0,4.31-7.85,4,4,0,0,0-4-4.49c-7.37.09-15.22,3.83-21.06-2.48a13.8,13.8,0,0,1-3.17-12.12c.93-4.59,2.18-12.05,7.91-14.14a5.67,5.67,0,0,1,6.66,1.87c1.7,2.49.27,5.2.16,7.87-.22,5.63,5.46,9.84,11,11,12.75,2.65,26.71-7,28.7-19.9,2-13.11-6.71-25.2-15-35.59-4.63-5.82-9.57-6.92-16.59-9.43a97.79,97.79,0,0,0-14.12-4c-3.69-.73-10.2-2.74-14.16-2.25-4.85.6-10.26-.24-15,.27-5.22.58-10.5,1.88-15.83,1.74A91.91,91.91,0,0,0,950.43,725.24Z"/><path class="cls-3" d="M463,868.63a109.77,109.77,0,0,1-27.54-7,144.34,144.34,0,0,1-25.52-13,157.22,157.22,0,0,1-41.52-39.9,187.42,187.42,0,0,1-15.13-24.81,220.76,220.76,0,0,1-11.41-26.74c-1.73-4.54-3-9.2-4.47-13.83-.75-2.31-1.31-4.67-1.92-7l-1.81-7a126.57,126.57,0,0,0-8.87-25.1c-.43-1-1-2-1.47-3s-1-2-1.5-3c-1.09-1.92-2-3.91-3.21-5.78L317,689.65c-.58-.94-1.19-1.86-1.79-2.79-1.15-1.88-2.47-3.64-3.75-5.44s-2.7-3.48-4.09-5.19l-2.19-2.48-1.09-1.24-1.16-1.18-2.3-2.36c-.78-.78-1.61-1.51-2.41-2.26-1.58-1.54-3.29-2.93-5-4.35-.82-.73-1.71-1.38-2.59-2.05l-2.62-2-2.84-2c-1.12-.83-2.24-1.67-3.25-2.53A98.28,98.28,0,0,1,271,642.87a242.21,242.21,0,0,1-17.71-23.34,551.36,551.36,0,0,1-29.4-49.39q-13.47-25.27-25-51.49A559.81,559.81,0,0,1,178.23,465a261.08,261.08,0,0,1-7.52-28.23,121.68,121.68,0,0,1-2.11-15,63.31,63.31,0,0,1-.1-8.06,37,37,0,0,1,1.51-8.94,20,20,0,0,1,.91-2.45l.59-1.25.32-.63.42-.66a15,15,0,0,1,1.88-2.54,15.6,15.6,0,0,1,2.29-2.17,15.13,15.13,0,0,1,2.51-1.69,16.65,16.65,0,0,1,2.58-1.22,18.72,18.72,0,0,1,2.53-.84,23.67,23.67,0,0,1,2.45-.55,38,38,0,0,1,8.92-.39l2.07.16,2,.24c1.35.15,2.62.4,3.92.62a118.53,118.53,0,0,1,14.68,3.84c4.72,1.53,9.31,3.23,13.82,5,9,3.62,17.77,7.65,26.37,11.87s17.07,8.67,25.44,13.24c16.72,9.15,33.1,18.81,49.27,28.78s32.12,20.27,47.87,30.92c3.94,2.67,7.86,5.36,11.78,8.11l5.86,4.17c.48.33,1,.75,1.44,1l1.29.86,2.6,1.73,2.69,1.48c.45.25.89.51,1.35.74l1.39.61c.93.39,1.84.87,2.78,1.2l2.85,1a44.5,44.5,0,0,0,11.72,1.84,48,48,0,0,0,23.3-5.92l3.2-1.7c1.12-.58,2.24-1.14,3.37-1.69q3.39-1.63,6.88-3.09c2.32-1,4.67-1.86,7.05-2.68l3.32-1.16,3.25-1.16a238.07,238.07,0,0,0,25.2-10.68,120.82,120.82,0,0,0,11.57-6.55,58.28,58.28,0,0,0,9.76-7.64c2.7-2.71,4.52-5.66,4.79-7.7,0-.12,0-.25,0-.37a2.93,2.93,0,0,0,.06-.52c0-.49,0-1,.05-1.55,0-1.07,0-2.21,0-3.35,0-2.28,0-4.6-.09-6.94l-.64-28.32c-.37-18.95-.48-38,.09-57a517.08,517.08,0,0,1,4.49-57.35,232.71,232.71,0,0,1,5.84-28.76,123.86,123.86,0,0,1,4.92-14.33,68.92,68.92,0,0,1,7.68-14,44.69,44.69,0,0,1,5.7-6.5,35.83,35.83,0,0,1,7.61-5.33,31.29,31.29,0,0,1,9.27-2.86,49.16,49.16,0,0,1,8.57-.32,50.17,50.17,0,0,1,8.41,1.24,53.58,53.58,0,0,1,7.92,2.6,67,67,0,0,1,13.93,8,113.17,113.17,0,0,1,21.47,21.55,205,205,0,0,1,16.25,24.57c9.64,16.92,17.4,34.58,24.3,52.46,13.66,35.83,23.78,72.64,32.29,109.69,4.25,18.53,8,37.15,11.47,55.82l1.27,7,.32,1.75.32,1.86c.2,1.24.38,2.49.55,3.73a142.87,142.87,0,0,1,1.19,15l.11,7.16.18,7,.38,13.87a250.74,250.74,0,0,0,2,27.43l.47,3.36c.18,1.11.39,2.21.59,3.31.35,2.23.9,4.34,1.37,6.5.28,1.05.59,2.07.89,3.11.15.52.28,1.05.45,1.55l.54,1.46a26.61,26.61,0,0,0,1.13,2.86l.64,1.33.31.67.16.34.22.42a142,142,0,0,1,11.14,27.34,175.47,175.47,0,0,1,5.94,28.47,159.34,159.34,0,0,1-2.87,57.48l-2,6.92c-.32,1.16-.67,2.29-1,3.41l-1.09,3.37-4.38,13.48-8.81,27,6.59-27.58L737.84,742l.83-3.44c.29-1.15.55-2.3.77-3.44l1.39-6.83a152.71,152.71,0,0,0-1.18-55.18,176.77,176.77,0,0,0-7.45-26.5,130.49,130.49,0,0,0-11.76-24.36l-.21-.35-.25-.44-.51-.9-1-1.8a35,35,0,0,1-1.73-3.62l-.8-1.81c-.25-.61-.45-1.21-.67-1.81-.43-1.21-.89-2.42-1.28-3.63-.7-2.41-1.5-4.84-2-7.24-.29-1.21-.61-2.42-.88-3.62l-.76-3.62a268.4,268.4,0,0,1-4-28.87c-.43-4.81-.68-9.62-.78-14.42,0-2.41-.06-4.81,0-7.21s.06-4.88,0-7a105.84,105.84,0,0,0-1-13.2c-.14-1.1-.3-2.19-.48-3.28l-.28-1.63-.31-1.73-1.26-6.93c-3.42-18.47-7.14-36.88-11.33-55.16-8.4-36.53-18.37-72.74-31.64-107.52-6.69-17.34-14.19-34.35-23.25-50.26a190.89,190.89,0,0,0-15-22.65A97.8,97.8,0,0,0,602.69,255c-6.75-5-14.21-8.35-21.67-8.74a33.41,33.41,0,0,0-5.57.21,15.8,15.8,0,0,0-4.21,1.3,19.73,19.73,0,0,0-3.93,2.79,28.45,28.45,0,0,0-3.61,4.15,53.3,53.3,0,0,0-5.87,10.79A107.8,107.8,0,0,0,553.57,278a216.78,216.78,0,0,0-5.42,26.72,503.21,503.21,0,0,0-4.33,55.55c-.55,18.69-.45,37.45-.08,56.25l.64,28.32c0,2.39.08,4.78.09,7.22,0,1.22,0,2.45,0,3.73,0,.63,0,1.31-.06,2,0,.29-.06.79-.11,1.25l-.17,1.38a25.86,25.86,0,0,1-3.67,9.49,40.65,40.65,0,0,1-5.53,6.92,74.39,74.39,0,0,1-12.46,9.84,138.66,138.66,0,0,1-13.07,7.4,253.13,253.13,0,0,1-26.92,11.43L479,506.68l-3.36,1.17c-2.09.72-4.15,1.51-6.18,2.35s-4.06,1.75-6.05,2.72c-1,.48-2,1-3,1.48L457.43,516a69.29,69.29,0,0,1-14.91,5.85,59.78,59.78,0,0,1-16.14,2,60.44,60.44,0,0,1-16.16-2.54L406.36,520c-1.27-.46-2.48-1.06-3.72-1.59l-1.85-.83c-.6-.29-1.17-.63-1.76-.95l-3.51-1.94-3.3-2.19-1.64-1.1c-.57-.38-1-.69-1.45-1l-5.68-4q-5.73-4-11.56-8-23.29-15.75-47.3-30.55c-16-9.85-32.14-19.39-48.55-28.36-8.2-4.48-16.47-8.81-24.81-12.92s-16.77-8-25.27-11.38c-4.25-1.71-8.52-3.3-12.79-4.67a102.23,102.23,0,0,0-12.69-3.34c-1-.17-2.07-.38-3.07-.48l-1.51-.19-1.46-.11a23.37,23.37,0,0,0-5.2.18,6.81,6.81,0,0,0-2.86,1.06c-.16.06-.18.19-.28.26s-.12.22-.22.3l-.07.07-.07.17c-.05.12-.1.23-.16.35a6,6,0,0,0-.32.87,21.21,21.21,0,0,0-.79,5,49.86,49.86,0,0,0,.09,6.08,106.87,106.87,0,0,0,1.85,13,245.52,245.52,0,0,0,7.06,26.47,546.34,546.34,0,0,0,20.06,52.06q11.28,25.63,24.48,50.4a535.14,535.14,0,0,0,28.52,47.93A226.54,226.54,0,0,0,283,632.32a82.63,82.63,0,0,0,9.12,9.12c.78.68,1.55,1.25,2.33,1.82l2.91,2.09,3,2.29c1,.77,2,1.52,3,2.35a133,133,0,0,1,20.92,21.71,114.47,114.47,0,0,1,15.29,25.94,136.88,136.88,0,0,1,8.25,28.78l1.3,6.77c.45,2.26.83,4.54,1.41,6.77,1.07,4.46,2.05,9,3.4,13.36a210.94,210.94,0,0,0,9.1,26l2.82,6.3c.95,2.09,2.06,4.1,3.08,6.16.53,1,1,2.06,1.57,3.08l1.71,3c1.16,2,2.22,4,3.5,6a150.51,150.51,0,0,0,36.9,41,140.38,140.38,0,0,0,23.8,14.66,130.56,130.56,0,0,0,13,5.39A89.53,89.53,0,0,0,463,868.63Z"/><path class="cls-3" d="M818.86,840.88c-.88,4.88-1.78,9.76-2.19,14.61a45.33,45.33,0,0,0,.63,14.11,27.25,27.25,0,0,0,2.16,6.32,29.3,29.3,0,0,0,3.57,5.53,48.06,48.06,0,0,0,4.67,4.93c1.69,1.56,3.29,3.29,5,4.9a85.07,85.07,0,0,0,23.5,15.22,88.28,88.28,0,0,0,13.3,4.52,48.2,48.2,0,0,0,13.38,1.69A27.16,27.16,0,0,0,895,909.3a71.23,71.23,0,0,0,11.34-8l5.73-4.73c2-1.6,4-3.16,6.09-4.65a131.26,131.26,0,0,1,12.95-8.19A133.68,133.68,0,0,1,945,877.08a139.34,139.34,0,0,1,14.46-5,128.56,128.56,0,0,0,13.6-4.35,27.45,27.45,0,0,0,10.49-7,4.51,4.51,0,0,1,6.35-.43,5.36,5.36,0,0,1,.72.79l0,0a50.91,50.91,0,0,0,7,8,72.2,72.2,0,0,0,8.64,6.76,225.06,225.06,0,0,0,19.82,11.42,172.92,172.92,0,0,1,20.51,12.37,77.1,77.1,0,0,1,9.38,8c2.9,2.91,5.51,6,8,9,5,6.05,9.72,12.07,15.1,16.84a38.69,38.69,0,0,0,4.2,3.26c1.48,1,3,1.81,4.51,2.73a32.45,32.45,0,0,0,9.45,4.19,21.42,21.42,0,0,0,10.13.19,76.17,76.17,0,0,0,10.72-3.65,80,80,0,0,0,10.25-5.17,35.07,35.07,0,0,0,8.9-7.31,34.21,34.21,0,0,1-7.77,8.87,72.81,72.81,0,0,1-9.7,6.9,82.64,82.64,0,0,1-10.72,5.53,27.8,27.8,0,0,1-12.93,1.82,39.64,39.64,0,0,1-12.55-3.33,30.65,30.65,0,0,1-5.46-3.33c-1.72-1.25-3.39-2.54-5-3.94-6.28-5.59-11.16-11.95-16.08-17.84-2.46-2.95-4.91-5.81-7.51-8.41a66.81,66.81,0,0,0-8.31-7.14,162.66,162.66,0,0,0-19.45-11.7,235.21,235.21,0,0,1-20.6-11.89,81.59,81.59,0,0,1-9.72-7.62,60.41,60.41,0,0,1-8.31-9.5l7.08.39a36.43,36.43,0,0,1-13.82,9.41,137,137,0,0,1-14.57,4.7,129.18,129.18,0,0,0-13.54,4.62,127.6,127.6,0,0,0-12.87,6.16,124.8,124.8,0,0,0-12,7.63c-3.88,2.75-7.48,5.81-11.36,9a78.76,78.76,0,0,1-12.81,9,39.92,39.92,0,0,1-7.73,3.16,34.73,34.73,0,0,1-8.34,1.3,56.85,56.85,0,0,1-15.91-2A95,95,0,0,1,826.59,898a42.4,42.4,0,0,1-5.55-5.5,55.56,55.56,0,0,1-4.55-6.64,36.48,36.48,0,0,1-3.31-7.53,33.82,33.82,0,0,1-1.39-8,49.55,49.55,0,0,1,2-15.35A124,124,0,0,1,818.86,840.88Z"/><path class="cls-3" d="M468.31,820.07A441.89,441.89,0,0,1,511,850c1.69,1.36,3.25,2.88,4.8,4.4l4.74,4.47q4.75,4.47,9.38,9c6.2,6.11,12.1,12.33,18.38,17.91s13,10.53,20.3,13.73A47,47,0,0,0,580,902.87a52.73,52.73,0,0,0,12,.48,87.1,87.1,0,0,0,24-5.6c7.82-2.92,15.5-6.67,23.31-10.38a216.12,216.12,0,0,1,24.26-10.28c2-.72,4.51-1.35,6-1.93a39.58,39.58,0,0,0,5.25-2.63c3.58-2.06,7.13-4.48,11.1-6.73,1.06-.58,1.84-1.06,2.74-1.58l1.31-.76,1.27-.84c1.71-1.08,3.3-2.33,4.9-3.56a59.64,59.64,0,0,0,8.55-8.56,55.46,55.46,0,0,0,10.85-21.35,50.23,50.23,0,0,0,1.62-11.94l.07-3.07c.06-1-.08-2-.11-3.08l-.16-3.08c-.07-1-.23-2.05-.35-3.08l-.37-3.08-.55-3.07c-.32-2-.8-4.1-1.26-6.16s-1-4.11-1.54-6.15-1.25-4.08-1.65-6.19c-1.72-8.43-3.65-17.06-4.34-25.88-.07-1.11-.21-2.2-.23-3.31l-.05-3.31,0-1.65c0-.55.05-1.11.08-1.66l.2-3.3a30,30,0,0,1,.42-3.26l.51-3.24c.45-2.14,1.06-4.24,1.6-6.33a71.6,71.6,0,0,0,1.73,25.4c1.95,8.24,4.87,16.22,7.8,24.39a61.06,61.06,0,0,1,1.74,6.3c.48,2.14,1.11,4.23,1.55,6.41s1,4.31,1.34,6.52l.58,3.3.41,3.34c.12,1.12.29,2.22.37,3.35l.18,3.38c0,1.13.18,2.25.12,3.39l-.08,3.4a58,58,0,0,1-1.86,13.63,63.18,63.18,0,0,1-12.4,24.43,67.52,67.52,0,0,1-9.7,9.72c-1.81,1.4-3.63,2.81-5.56,4l-1.43.94-1.49.87c-1,.56-2,1.19-2.86,1.65-3.55,2-7.13,4.44-11,6.69a48.32,48.32,0,0,1-6.32,3.14c-2.58,1-4.32,1.35-6.34,2.08a208.46,208.46,0,0,0-23.36,9.91c-7.78,3.69-15.62,7.54-24,10.65a94.45,94.45,0,0,1-26.23,6.09,61,61,0,0,1-13.81-.55,54.93,54.93,0,0,1-13.34-3.94c-8.5-3.7-15.84-9.2-22.43-15.08s-12.6-12.2-18.68-18.2Q519.7,869,515,864.64c-1.55-1.47-3.11-2.95-4.72-4.36s-3.25-2.79-4.74-4.33C493.63,843.59,481.11,831.76,468.31,820.07Z"/><path class="cls-3" d="M459.19,987.75a3.67,3.67,0,0,1,.92-2.64,3.22,3.22,0,0,1,2.2-1h76.53a3.49,3.49,0,0,1,2.76,1,4.05,4.05,0,0,1,.92,2.78v19.78a4.16,4.16,0,0,1-1,2.59,3.35,3.35,0,0,1-2.8,1.24H490.14v24.78H526a3.94,3.94,0,0,1,2.56.84,3.26,3.26,0,0,1,1,2.68v19.11a4.3,4.3,0,0,1-.92,2.6,3,3,0,0,1-2.52,1.24H490.14v36.63q0,3.43-3.68,3.43H462.07a3,3,0,0,1-2.88-3.35Z"/><path class="cls-3" d="M578.42,987.75a3.88,3.88,0,0,1,.88-2.68,3.33,3.33,0,0,1,2.64-1h51.65A38.87,38.87,0,0,1,649,987.15a40.11,40.11,0,0,1,12.55,8.35,39,39,0,0,1,8.44,12.36,37.41,37.41,0,0,1,3.08,15.07,36,36,0,0,1-1.48,10.36,38.83,38.83,0,0,1-10.4,17,41.39,41.39,0,0,1-8,6l20.55,38.7q.55,1.11,1.44,2.64a5.53,5.53,0,0,1,.88,2.64,2.39,2.39,0,0,1-.84,2,3.54,3.54,0,0,1-2.28.67H645.59a4,4,0,0,1-2.44-.79,3.66,3.66,0,0,1-1.4-2.16l-19.43-36.55h-13v36.07q0,3.43-3.68,3.43H581.94a3.79,3.79,0,0,1-2.56-.83,3.28,3.28,0,0,1-1-2.6Zm62.61,35.5a13.78,13.78,0,0,0-.88-4.8,15.68,15.68,0,0,0-2.48-4.4,14.34,14.34,0,0,0-3.83-3.35,13,13,0,0,0-5-1.76l-4.2-.28c-1.31-.08-2.73-.12-4.28-.12h-11v29.34h14.71c1,0,1.81,0,2.56-.08s1.57-.13,2.48-.24a12.69,12.69,0,0,0,5-1.63,13.27,13.27,0,0,0,3.76-3.28,14.38,14.38,0,0,0,2.32-4.4A16,16,0,0,0,641,1023.25Z"/><path class="cls-3" d="M707.08,987.59a3.69,3.69,0,0,1,.88-2.48,3.28,3.28,0,0,1,2.64-1h23.51a4.52,4.52,0,0,1,2.56,1,3,3,0,0,1,1.36,2.56V1099.3q0,3.51-3.92,3.51H710.6q-3.52,0-3.52-3.51Z"/><path class="cls-3" d="M779.77,987.75a3.8,3.8,0,0,1,.91-2.68,3.34,3.34,0,0,1,2.6-1h79.33a3.5,3.5,0,0,1,2.72,1,3.93,3.93,0,0,1,1,2.78v19.78a4.16,4.16,0,0,1-1,2.59,3.34,3.34,0,0,1-2.8,1.24H810.71v19.83h40a4.18,4.18,0,0,1,2.52.72,2.74,2.74,0,0,1,1,2.39v17.28a3.32,3.32,0,0,1-.88,2.16,3.17,3.17,0,0,1-2.56,1H810.71v20.47h53.74q3.6,0,3.6,3.67v20.09a2,2,0,0,1-.64,1.43c-.22,1.49-1.31,2.23-3.28,2.23H783.28a3.79,3.79,0,0,1-2.56-.83,3.31,3.31,0,0,1-1-2.6Z"/><path class="cls-3" d="M904,987.59a3.69,3.69,0,0,1,.88-2.48,3.26,3.26,0,0,1,2.64-1H933.7a5.51,5.51,0,0,1,2.31.56,5,5,0,0,1,2.08,1.92q10.15,16.4,20.15,32.3t20.23,32.31V987.11a3.94,3.94,0,0,1,1.28-2.24,3.42,3.42,0,0,1,2.24-.8h22.79a4.29,4.29,0,0,1,2.8.92,3.16,3.16,0,0,1,1.12,2.6V1099.7a2.81,2.81,0,0,1-1,2.35,4.13,4.13,0,0,1-2.64.76H979.59a2.6,2.6,0,0,1-1.83-.72,11.44,11.44,0,0,1-1.68-1.91q-10.65-17.6-21-34.79t-21.12-34.78v68.69a3.05,3.05,0,0,1-3.67,3.51H907.55a3.3,3.3,0,0,1-2.68-1,3.63,3.63,0,0,1-.84-2.43Z"/><path class="cls-3" d="M1153.59,1043.56a59.3,59.3,0,0,1-2.15,16.11,57.67,57.67,0,0,1-6.16,14.24,59.42,59.42,0,0,1-21.87,21.07,62.31,62.31,0,0,1-14.6,5.8,64.11,64.11,0,0,1-16.23,2h-39.42a5.14,5.14,0,0,1-2.56-.63c-.75-.43-1.12-1.34-1.12-2.72V987.75a4,4,0,0,1,.92-2.72,3.49,3.49,0,0,1,2.76-1h39.42a62.33,62.33,0,0,1,16.19,2.08,61.5,61.5,0,0,1,14.56,5.91,62.49,62.49,0,0,1,12.35,9.2,56.77,56.77,0,0,1,9.56,12,60.12,60.12,0,0,1,6.16,14.31A58.28,58.28,0,0,1,1153.59,1043.56Zm-73.16-30.87v61.5h6.71q1.84,0,3.6-.12c1.17-.08,2.35-.17,3.52-.28a32.12,32.12,0,0,0,11.2-2.92,31.07,31.07,0,0,0,9.07-6.4,28.76,28.76,0,0,0,6.08-9.31,30.59,30.59,0,0,0,2.2-11.68,29.87,29.87,0,0,0-2.52-12.35,30.6,30.6,0,0,0-6.84-9.76,31,31,0,0,0-10.11-6.4,33.71,33.71,0,0,0-12.36-2.28Z"/><path class="cls-2" d="M469,1141.91v36.85h47.77v8.58H469v39.8h-9.77v-93.81h63.35v8.58Z"/><path class="cls-2" d="M621.26,1218.56v8.58H555.94v-93.81h63.34v8.58H565.7v33.37h47.78v8.44H565.7v34.84Z"/><path class="cls-2" d="M675.38,1141.91H642.91v-8.58h74.7v8.58H685.14v85.23h-9.76Z"/><path class="cls-2" d="M736.88,1180.24c0-27.48,20.59-47.71,48.44-47.71,13.46,0,25.6,4.56,33.78,13.67l-6.2,6.3c-7.52-7.78-16.76-11.13-27.32-11.13-22.3,0-39.06,16.62-39.06,38.87s16.76,38.86,39.06,38.86c10.56,0,19.8-3.35,27.32-11.26l6.2,6.3c-8.18,9.11-20.32,13.8-33.91,13.8C757.47,1227.94,736.88,1207.71,736.88,1180.24Z"/><path class="cls-2" d="M930.37,1133.33v93.81h-9.64v-43.29h-57.8v43.29h-9.77v-93.81h9.77v41.81h57.8v-41.81Z"/><path class="cls-2" d="M1039,1218.56v8.58H973.66v-93.81H1037v8.58H983.42v33.37h47.78v8.44H983.42v34.84Z"/><path class="cls-2" d="M1138.24,1227.14,1117.12,1197a66.59,66.59,0,0,1-7.39.4h-24.81v29.75h-9.77v-93.81h34.58c23.49,0,37.75,12.06,37.75,32.17,0,14.74-7.66,25-21.12,29.48l22.57,32.16Zm-.53-61.64c0-15-9.77-23.59-28.24-23.59h-24.55v47h24.55C1127.94,1189,1137.71,1180.24,1137.71,1165.5Z"/><path class="cls-4" d="M427.26,1125.22l-16.14.64c-19.42.79-38.88,1.34-58.24,3-18.54,1.58-37,4.11-55.44,6.86-13.06,1.94-22.23,9.33-28.75,21.16-12.63,22.9-31.95,35.18-58.84,32.4-25.59-2.65-53.53-34-41.38-63.18,2.68-6.45,7.65-12,12-17.66,6.2-7.94,6-10.18-1.2-17-13-12.28-21.55-26.43-18.31-45.37,3.56-20.86,16.32-34,35.53-40.8,28.8-10.2,54.25,3.5,69.68,27.7,3.44,5.39,6.71,10.93,10.64,16,7.9,10.12,19.57,12.63,31.42,14.4,39.52,5.93,79.27,6.14,119,4.75"/><path class="cls-4" d="M1172.74,1121.7l16.14.64c19.42.79,38.88,1.33,58.24,3,18.54,1.58,37,4.11,55.44,6.85,13.06,1.94,22.23,9.33,28.75,21.16,12.63,22.91,32,35.18,58.84,32.4,25.59-2.64,53.53-34,41.38-63.18-2.68-6.44-7.65-12-12-17.66-6.2-7.94-6-10.18,1.2-17,13-12.28,21.55-26.43,18.31-45.38-3.56-20.86-16.32-34-35.53-40.8-28.8-10.2-54.25,3.5-69.68,27.7-3.44,5.39-6.71,10.94-10.64,16-7.9,10.12-19.57,12.63-31.42,14.41-39.52,5.93-79.27,6.13-119,4.75"/></svg>